<svg width="1120" height="747" viewBox="0 0 1120 747" fill="none" xmlns="http://www.w3.org/2000/svg">
<rect x="4.5" y="4.5" width="1111" height="738" rx="19.5" fill="#303030"/>
<rect x="4.5" y="4.5" width="1111" height="738" rx="19.5" stroke="#303030" stroke-width="9"/>
<path d="M64.109 256V249.787C66.1437 249.787 67.7787 249.206 69.014 248.043C70.2493 246.88 71.2667 245.354 72.066 243.465C72.8653 241.503 73.701 239.323 74.573 236.925L96.264 177.738H102.15L125.803 238.015C126.239 239.25 126.82 240.994 127.547 243.247C128.274 245.5 128.673 247.462 128.746 249.133C129.981 249.06 131.18 248.988 132.343 248.915C133.506 248.842 134.523 248.806 135.395 248.806V256H107.6V250.005C109.853 250.005 111.379 249.533 112.178 248.588C112.977 247.643 113.304 246.408 113.159 244.882C113.086 243.356 112.723 241.794 112.069 240.195L109.344 232.783L84.056 233.219L81.658 240.522C81.222 241.757 80.7133 243.174 80.132 244.773C79.5507 246.299 78.9693 247.68 78.388 248.915C79.696 248.842 81.113 248.77 82.639 248.697C84.2377 248.624 85.5093 248.588 86.454 248.588V256H64.109ZM86.454 226.243H106.946L101.06 210.22C100.188 207.749 99.3523 205.279 98.553 202.808C97.8263 200.265 97.2087 197.939 96.7 195.832H96.482C96.046 197.285 95.501 199.175 94.847 201.5C94.2657 203.825 93.43 206.478 92.34 209.457L86.454 226.243ZM160.738 257.744C156.378 257.744 152.491 256.618 149.075 254.365C145.66 252.112 142.971 248.915 141.009 244.773C139.12 240.631 138.175 235.762 138.175 230.167C138.175 224.281 139.338 219.049 141.663 214.471C143.989 209.893 147.186 206.296 151.255 203.68C155.397 201.064 160.157 199.756 165.534 199.756C167.642 199.756 169.604 200.01 171.42 200.519C173.31 200.955 174.945 201.464 176.325 202.045V192.344C176.325 191.254 176.325 189.91 176.325 188.311C176.398 186.712 176.507 185.114 176.652 183.515C175.49 183.588 174.145 183.66 172.619 183.733C171.166 183.806 169.931 183.878 168.913 183.951V176.866C172.256 176.866 174.981 176.721 177.088 176.43C179.196 176.067 180.831 175.631 181.993 175.122C183.229 174.613 184.101 174.141 184.609 173.705H189.623V240.413C189.623 241.503 189.587 242.884 189.514 244.555C189.442 246.154 189.333 247.752 189.187 249.351C190.423 249.206 191.694 249.133 193.002 249.133C194.383 249.06 195.546 248.988 196.49 248.915V256H177.524C177.379 255.128 177.234 254.256 177.088 253.384C177.016 252.439 176.907 251.567 176.761 250.768C174.509 253.166 172.038 254.91 169.349 256C166.661 257.163 163.79 257.744 160.738 257.744ZM165.861 249.351C167.896 249.351 169.858 248.806 171.747 247.716C173.637 246.553 175.163 245.136 176.325 243.465C176.253 242.448 176.216 241.43 176.216 240.413C176.216 239.323 176.216 238.233 176.216 237.143L176.325 209.239C175.235 208.367 173.855 207.713 172.183 207.277C170.512 206.768 168.804 206.514 167.06 206.514C163.645 206.587 160.847 207.677 158.667 209.784C156.56 211.819 154.998 214.507 153.98 217.85C153.036 221.193 152.6 224.826 152.672 228.75C152.672 232.311 153.145 235.653 154.089 238.778C155.034 241.903 156.451 244.446 158.34 246.408C160.302 248.37 162.809 249.351 165.861 249.351ZM203.976 250.223C206.084 250.223 207.573 249.787 208.445 248.915C209.317 247.97 209.862 246.662 210.08 244.991C210.298 243.32 210.407 241.43 210.407 239.323V218.94C210.407 217.705 210.444 216.36 210.516 214.907C210.589 213.381 210.698 211.819 210.843 210.22C209.608 210.293 208.264 210.365 206.81 210.438C205.357 210.511 204.158 210.583 203.213 210.656V203.571C206.483 203.571 209.172 203.426 211.279 203.135C213.459 202.772 215.131 202.336 216.293 201.827C217.529 201.318 218.401 200.846 218.909 200.41H223.814V240.413C223.814 241.576 223.778 242.993 223.705 244.664C223.705 246.263 223.596 247.825 223.378 249.351C224.541 249.206 225.776 249.133 227.084 249.133C228.465 249.06 229.591 249.024 230.463 249.024V256H203.976V250.223ZM216.511 191.036C214.404 191.036 212.624 190.273 211.17 188.747C209.717 187.148 208.99 185.223 208.99 182.97C208.99 180.717 209.717 178.792 211.17 177.193C212.696 175.594 214.477 174.795 216.511 174.795C218.619 174.795 220.363 175.594 221.743 177.193C223.197 178.792 223.923 180.717 223.923 182.97C223.923 185.223 223.233 187.148 221.852 188.747C220.472 190.273 218.691 191.036 216.511 191.036ZM263.983 257.744C259.115 257.744 254.609 256.654 250.467 254.474C246.398 252.294 243.128 249.133 240.657 244.991C238.259 240.776 237.06 235.726 237.06 229.84C237.06 225.843 237.751 222.065 239.131 218.504C240.512 214.871 242.438 211.673 244.908 208.912C247.452 206.078 250.467 203.862 253.955 202.263C257.443 200.592 261.295 199.756 265.509 199.756C269.942 199.756 273.684 200.446 276.736 201.827C279.788 203.135 282.114 204.915 283.712 207.168C285.311 209.348 286.11 211.673 286.11 214.144C286.11 216.106 285.529 217.814 284.366 219.267C283.276 220.72 281.678 221.483 279.57 221.556C277.1 221.629 275.356 220.938 274.338 219.485C273.394 217.959 272.921 216.542 272.921 215.234C272.921 214.507 273.03 213.744 273.248 212.945C273.466 212.073 273.83 211.274 274.338 210.547C273.83 209.239 272.994 208.294 271.831 207.713C270.669 207.059 269.47 206.623 268.234 206.405C266.999 206.187 266.018 206.114 265.291 206.187C261.295 206.332 257.988 208.149 255.372 211.637C252.756 215.125 251.448 220.212 251.448 226.897C251.448 230.894 251.993 234.6 253.083 238.015C254.246 241.358 255.99 244.083 258.315 246.19C260.641 248.225 263.62 249.278 267.253 249.351C270.451 249.424 273.539 248.661 276.518 247.062C279.498 245.391 281.932 243.247 283.821 240.631L288.181 244.664C285.783 248.079 283.204 250.732 280.442 252.621C277.681 254.51 274.883 255.818 272.049 256.545C269.288 257.344 266.599 257.744 263.983 257.744ZM294.987 250.223C297.095 250.223 298.584 249.787 299.456 248.915C300.328 247.97 300.873 246.662 301.091 244.991C301.309 243.32 301.418 241.43 301.418 239.323V218.94C301.418 217.705 301.455 216.36 301.527 214.907C301.6 213.381 301.709 211.819 301.854 210.22C300.619 210.293 299.275 210.365 297.821 210.438C296.368 210.511 295.169 210.583 294.224 210.656V203.571C297.494 203.571 300.183 203.426 302.29 203.135C304.47 202.772 306.142 202.336 307.304 201.827C308.54 201.318 309.412 200.846 309.92 200.41H314.825V240.413C314.825 241.576 314.789 242.993 314.716 244.664C314.716 246.263 314.607 247.825 314.389 249.351C315.552 249.206 316.787 249.133 318.095 249.133C319.476 249.06 320.602 249.024 321.474 249.024V256H294.987V250.223ZM307.522 191.036C305.415 191.036 303.635 190.273 302.181 188.747C300.728 187.148 300.001 185.223 300.001 182.97C300.001 180.717 300.728 178.792 302.181 177.193C303.707 175.594 305.488 174.795 307.522 174.795C309.63 174.795 311.374 175.594 312.754 177.193C314.208 178.792 314.934 180.717 314.934 182.97C314.934 185.223 314.244 187.148 312.863 188.747C311.483 190.273 309.702 191.036 307.522 191.036ZM355.757 257.744C350.598 257.744 345.911 256.618 341.696 254.365C337.482 252.04 334.139 248.806 331.668 244.664C329.27 240.449 328.071 235.544 328.071 229.949C328.071 224.063 329.307 218.831 331.777 214.253C334.248 209.675 337.554 206.114 341.696 203.571C345.911 201.028 350.525 199.756 355.539 199.756C360.699 199.756 365.349 200.919 369.491 203.244C373.633 205.569 376.903 208.803 379.301 212.945C381.772 217.087 383.007 221.992 383.007 227.66C383.007 233.619 381.808 238.887 379.41 243.465C377.085 247.97 373.851 251.495 369.709 254.038C365.64 256.509 360.989 257.744 355.757 257.744ZM356.302 251.095C359.572 251.095 362.079 250.078 363.823 248.043C365.567 246.008 366.766 243.429 367.42 240.304C368.147 237.107 368.51 233.837 368.51 230.494C368.51 227.66 368.256 224.79 367.747 221.883C367.311 218.976 366.585 216.36 365.567 214.035C364.55 211.637 363.206 209.748 361.534 208.367C359.863 206.914 357.828 206.187 355.43 206.187C352.233 206.26 349.69 207.313 347.8 209.348C345.911 211.383 344.53 213.962 343.658 217.087C342.859 220.212 342.459 223.518 342.459 227.006C342.459 230.93 342.932 234.781 343.876 238.56C344.821 242.266 346.311 245.318 348.345 247.716C350.38 250.041 353.032 251.168 356.302 251.095ZM391.32 256V250.223C393.428 250.223 394.917 249.787 395.789 248.915C396.661 247.97 397.206 246.662 397.424 244.991C397.642 243.32 397.751 241.43 397.751 239.323V218.831C397.751 217.523 397.788 216.142 397.86 214.689C397.933 213.236 398.042 211.746 398.187 210.22C397.025 210.293 395.68 210.365 394.154 210.438C392.701 210.511 391.502 210.583 390.557 210.656V203.571C393.827 203.571 396.516 203.426 398.623 203.135C400.731 202.772 402.366 202.336 403.528 201.827C404.691 201.318 405.527 200.846 406.035 200.41H410.613C410.759 201.209 410.831 201.863 410.831 202.372C410.831 202.881 410.868 203.426 410.94 204.007C411.013 204.516 411.122 205.279 411.267 206.296C412.721 205.061 414.392 203.971 416.281 203.026C418.243 202.009 420.205 201.209 422.167 200.628C424.129 200.047 425.946 199.756 427.617 199.756C434.157 199.756 438.844 201.682 441.678 205.533C444.512 209.384 445.929 215.525 445.929 223.954V240.413C445.929 241.576 445.893 242.993 445.82 244.664C445.82 246.263 445.711 247.825 445.493 249.351C446.729 249.206 448 249.133 449.308 249.133C450.616 249.06 451.706 249.024 452.578 249.024V256H426.091V250.223C428.199 250.223 429.688 249.787 430.56 248.915C431.505 247.97 432.086 246.662 432.304 244.991C432.522 243.32 432.631 241.43 432.631 239.323L432.522 223.845C432.522 218.613 431.723 214.725 430.124 212.182C428.598 209.566 426.055 208.258 422.494 208.258C420.387 208.331 418.316 208.839 416.281 209.784C414.247 210.729 412.539 211.928 411.158 213.381C411.231 214.253 411.267 215.161 411.267 216.106C411.267 217.051 411.267 217.995 411.267 218.94L411.158 240.413C411.158 241.576 411.122 242.993 411.049 244.664C411.049 246.263 410.94 247.825 410.722 249.351C411.885 249.206 413.12 249.133 414.428 249.133C415.809 249.06 416.935 249.024 417.807 249.024V256H391.32ZM491.048 256C490.83 254.91 490.684 254.002 490.612 253.275C490.612 252.476 490.575 251.567 490.503 250.55C488.032 253.021 485.38 254.837 482.546 256C479.784 257.163 476.914 257.744 473.935 257.744C468.993 257.744 465.178 256.4 462.49 253.711C459.874 251.022 458.566 247.716 458.566 243.792C458.566 240.304 459.51 237.361 461.4 234.963C463.289 232.492 465.76 230.494 468.812 228.968C471.864 227.369 475.243 226.17 478.949 225.371C482.655 224.499 486.324 224.027 489.958 223.954V217.959C489.958 215.852 489.703 213.926 489.195 212.182C488.759 210.365 487.923 208.948 486.688 207.931C485.452 206.841 483.636 206.296 481.238 206.296C479.639 206.369 478.004 206.732 476.333 207.386C474.734 207.967 473.462 208.912 472.518 210.22C473.099 210.874 473.462 211.601 473.608 212.4C473.753 213.127 473.826 213.781 473.826 214.362C473.826 215.67 473.317 217.051 472.3 218.504C471.282 219.885 469.647 220.539 467.395 220.466C465.433 220.393 463.907 219.703 462.817 218.395C461.799 217.087 461.291 215.525 461.291 213.708C461.291 210.947 462.272 208.549 464.234 206.514C466.268 204.407 468.993 202.772 472.409 201.609C475.824 200.374 479.639 199.756 483.854 199.756C490.103 199.756 494.899 201.391 498.242 204.661C501.584 207.931 503.219 213.163 503.147 220.357C503.147 222.9 503.147 225.226 503.147 227.333C503.147 229.368 503.11 231.439 503.038 233.546C503.038 235.581 503.038 237.87 503.038 240.413C503.038 241.503 503.001 242.884 502.929 244.555C502.856 246.154 502.747 247.752 502.602 249.351C503.91 249.206 505.218 249.133 506.526 249.133C507.906 249.06 509.033 248.988 509.905 248.915V256H491.048ZM489.849 230.385C487.669 230.53 485.525 230.894 483.418 231.475C481.31 231.984 479.421 232.71 477.75 233.655C476.078 234.6 474.734 235.799 473.717 237.252C472.772 238.633 472.336 240.231 472.409 242.048C472.481 244.301 473.208 245.972 474.589 247.062C475.969 248.079 477.568 248.588 479.385 248.588C481.492 248.588 483.381 248.152 485.053 247.28C486.797 246.408 488.395 245.245 489.849 243.792C489.849 243.065 489.849 242.302 489.849 241.503C489.849 240.704 489.849 239.904 489.849 239.105C489.849 238.088 489.849 236.816 489.849 235.29C489.849 233.764 489.849 232.129 489.849 230.385ZM516.606 256V250.223C518.714 250.223 520.203 249.787 521.075 248.915C521.947 247.97 522.492 246.662 522.71 244.991C522.928 243.32 523.037 241.43 523.037 239.323V218.831C523.037 217.523 523.074 216.142 523.146 214.689C523.219 213.236 523.328 211.746 523.473 210.22C522.238 210.293 520.894 210.365 519.44 210.438C517.987 210.511 516.788 210.583 515.843 210.656V203.571C519.113 203.571 521.802 203.426 523.909 203.135C526.017 202.772 527.652 202.336 528.814 201.827C529.977 201.318 530.813 200.846 531.321 200.41H535.899C536.045 201.137 536.117 202.045 536.117 203.135C536.19 204.152 536.263 205.097 536.335 205.969C538.733 204.08 541.349 202.59 544.183 201.5C547.017 200.337 549.779 199.756 552.467 199.756C555.883 199.756 558.717 200.374 560.969 201.609C563.295 202.844 565.111 204.625 566.419 206.95C568.963 204.843 571.833 203.135 575.03 201.827C578.228 200.446 581.316 199.756 584.295 199.756C590.327 199.756 594.832 201.536 597.811 205.097C600.863 208.585 602.353 214.544 602.28 222.973V240.413C602.28 241.576 602.244 242.993 602.171 244.664C602.099 246.263 601.99 247.825 601.844 249.351C603.007 249.206 604.242 249.133 605.55 249.133C606.858 249.06 607.948 249.024 608.82 249.024V256H582.987V250.223C584.877 250.223 586.221 249.787 587.02 248.915C587.82 247.97 588.292 246.662 588.437 244.991C588.655 243.32 588.764 241.43 588.764 239.323V223.082C588.764 217.85 587.929 214.108 586.257 211.855C584.586 209.602 582.224 208.476 579.172 208.476C577.138 208.403 575.176 208.803 573.286 209.675C571.47 210.474 569.871 211.455 568.49 212.618C568.854 213.999 569.108 215.488 569.253 217.087C569.399 218.686 569.471 220.393 569.471 222.21C569.471 225.262 569.471 228.314 569.471 231.366C569.471 234.345 569.435 237.361 569.362 240.413C569.362 241.576 569.326 242.993 569.253 244.664C569.253 246.263 569.144 247.825 568.926 249.351C570.089 249.206 571.324 249.133 572.632 249.133C573.94 249.06 575.067 249.024 576.011 249.024V256H549.851V250.223C551.813 250.223 553.194 249.787 553.993 248.915C554.865 247.97 555.41 246.662 555.628 244.991C555.846 243.32 555.955 241.43 555.955 239.323V222.864C555.955 217.632 555.156 213.926 553.557 211.746C552.031 209.493 549.742 208.331 546.69 208.258C544.728 208.258 542.839 208.694 541.022 209.566C539.278 210.438 537.752 211.492 536.444 212.727C536.444 213.672 536.444 214.616 536.444 215.561C536.444 216.433 536.444 217.341 536.444 218.286V240.413C536.444 241.576 536.408 242.993 536.335 244.664C536.335 246.263 536.226 247.825 536.008 249.351C537.171 249.206 538.334 249.133 539.496 249.133C540.732 249.06 541.785 249.024 542.657 249.024V256H516.606ZM642.734 257.744C637.574 257.744 632.887 256.618 628.673 254.365C624.458 252.04 621.115 248.806 618.645 244.664C616.247 240.449 615.048 235.544 615.048 229.949C615.048 224.063 616.283 218.831 618.754 214.253C621.224 209.675 624.531 206.114 628.673 203.571C632.887 201.028 637.502 199.756 642.516 199.756C647.675 199.756 652.326 200.919 656.468 203.244C660.61 205.569 663.88 208.803 666.278 212.945C668.748 217.087 669.984 221.992 669.984 227.66C669.984 233.619 668.785 238.887 666.387 243.465C664.061 247.97 660.828 251.495 656.686 254.038C652.616 256.509 647.966 257.744 642.734 257.744ZM643.279 251.095C646.549 251.095 649.056 250.078 650.8 248.043C652.544 246.008 653.743 243.429 654.397 240.304C655.123 237.107 655.487 233.837 655.487 230.494C655.487 227.66 655.232 224.79 654.724 221.883C654.288 218.976 653.561 216.36 652.544 214.035C651.526 211.637 650.182 209.748 648.511 208.367C646.839 206.914 644.805 206.187 642.407 206.187C639.209 206.26 636.666 207.313 634.777 209.348C632.887 211.383 631.507 213.962 630.635 217.087C629.835 220.212 629.436 223.518 629.436 227.006C629.436 230.93 629.908 234.781 630.853 238.56C631.797 242.266 633.287 245.318 635.322 247.716C637.356 250.041 640.009 251.168 643.279 251.095ZM702.495 257.744C699.152 257.744 696.027 257.308 693.121 256.436C690.214 255.564 687.889 254.51 686.145 253.275L686.472 256.763H679.387L678.842 238.015H684.728C684.946 240.486 685.818 242.738 687.344 244.773C688.87 246.735 690.832 248.297 693.23 249.46C695.7 250.55 698.425 251.095 701.405 251.095C702.858 251.095 704.239 250.877 705.547 250.441C706.927 250.005 708.054 249.315 708.926 248.37C709.87 247.353 710.343 246.081 710.343 244.555C710.343 242.956 709.798 241.648 708.708 240.631C707.69 239.614 706.237 238.669 704.348 237.797C702.458 236.925 700.242 236.017 697.699 235.072C695.446 234.2 693.193 233.292 690.941 232.347C688.688 231.402 686.617 230.276 684.728 228.968C682.838 227.587 681.312 225.916 680.15 223.954C678.987 221.992 678.406 219.594 678.406 216.76C678.406 214.798 678.769 212.836 679.496 210.874C680.222 208.912 681.385 207.095 682.984 205.424C684.582 203.68 686.617 202.299 689.088 201.282C691.631 200.265 694.719 199.756 698.353 199.756C700.315 199.756 702.531 200.083 705.002 200.737C707.472 201.318 709.652 202.336 711.542 203.789L711.433 200.301H718.518V219.485H712.632C712.268 216.942 711.469 214.689 710.234 212.727C708.998 210.692 707.363 209.094 705.329 207.931C703.294 206.768 700.86 206.187 698.026 206.187C695.7 206.187 693.738 206.768 692.14 207.931C690.541 209.021 689.742 210.656 689.742 212.836C689.742 214.653 690.359 216.142 691.595 217.305C692.83 218.468 694.501 219.449 696.609 220.248C698.716 221.047 701.005 221.919 703.476 222.864C706.891 224.027 709.979 225.407 712.741 227.006C715.575 228.605 717.827 230.53 719.499 232.783C721.17 235.036 722.006 237.833 722.006 241.176C722.006 244.955 721.061 248.079 719.172 250.55C717.282 252.948 714.848 254.765 711.869 256C708.889 257.163 705.765 257.744 702.495 257.744ZM72.502 373V367.005C74.464 366.932 76.0263 366.605 77.189 366.024C78.4243 365.443 79.3327 364.425 79.914 362.972C80.4953 361.446 80.786 359.302 80.786 356.541L80.677 310.216L68.469 317.737L65.09 312.396L88.852 294.956H94.411V357.086C94.411 358.903 94.3747 360.647 94.302 362.318C94.302 363.917 94.2293 365.188 94.084 366.133C95.392 366.06 96.8817 365.988 98.553 365.915C100.297 365.842 101.641 365.806 102.586 365.806V373H72.502ZM141.129 374.744C135.606 374.744 130.955 373.581 127.177 371.256C123.398 368.858 120.382 365.733 118.13 361.882C115.877 357.958 114.242 353.671 113.225 349.02C112.28 344.369 111.808 339.755 111.808 335.177C111.808 330.599 112.389 325.948 113.552 321.225C114.787 316.502 116.64 312.178 119.111 308.254C121.581 304.257 124.67 301.06 128.376 298.662C132.082 296.191 136.478 294.956 141.565 294.956C146.869 294.956 151.338 296.155 154.972 298.553C158.678 300.951 161.621 304.112 163.801 308.036C166.053 311.887 167.688 316.138 168.706 320.789C169.723 325.44 170.232 330.054 170.232 334.632C170.232 339.137 169.65 343.752 168.488 348.475C167.398 353.198 165.654 357.558 163.256 361.555C160.93 365.479 157.915 368.676 154.209 371.147C150.575 373.545 146.215 374.744 141.129 374.744ZM141.783 368.204C144.471 368.204 146.724 367.332 148.541 365.588C150.357 363.844 151.738 361.519 152.683 358.612C153.7 355.633 154.427 352.29 154.863 348.584C155.299 344.805 155.517 340.918 155.517 336.921C155.517 332.488 155.299 328.165 154.863 323.95C154.499 319.735 153.809 315.957 152.792 312.614C151.774 309.199 150.321 306.474 148.432 304.439C146.615 302.404 144.253 301.387 141.347 301.387C138.513 301.387 136.151 302.259 134.262 304.003C132.445 305.747 130.955 308.109 129.793 311.088C128.63 314.067 127.794 317.446 127.286 321.225C126.85 324.931 126.632 328.819 126.632 332.888C126.632 335.94 126.741 339.101 126.959 342.371C127.177 345.641 127.576 348.802 128.158 351.854C128.812 354.906 129.684 357.667 130.774 360.138C131.936 362.609 133.39 364.571 135.134 366.024C136.95 367.477 139.167 368.204 141.783 368.204ZM209.892 374.744C204.37 374.744 199.719 373.581 195.94 371.256C192.162 368.858 189.146 365.733 186.893 361.882C184.641 357.958 183.006 353.671 181.988 349.02C181.044 344.369 180.571 339.755 180.571 335.177C180.571 330.599 181.153 325.948 182.315 321.225C183.551 316.502 185.404 312.178 187.874 308.254C190.345 304.257 193.433 301.06 197.139 298.662C200.845 296.191 205.242 294.956 210.328 294.956C215.633 294.956 220.102 296.155 223.735 298.553C227.441 300.951 230.384 304.112 232.564 308.036C234.817 311.887 236.452 316.138 237.469 320.789C238.487 325.44 238.995 330.054 238.995 334.632C238.995 339.137 238.414 343.752 237.251 348.475C236.161 353.198 234.417 357.558 232.019 361.555C229.694 365.479 226.678 368.676 222.972 371.147C219.339 373.545 214.979 374.744 209.892 374.744ZM210.546 368.204C213.235 368.204 215.488 367.332 217.304 365.588C219.121 363.844 220.502 361.519 221.446 358.612C222.464 355.633 223.19 352.29 223.626 348.584C224.062 344.805 224.28 340.918 224.28 336.921C224.28 332.488 224.062 328.165 223.626 323.95C223.263 319.735 222.573 315.957 221.555 312.614C220.538 309.199 219.085 306.474 217.195 304.439C215.379 302.404 213.017 301.387 210.11 301.387C207.276 301.387 204.915 302.259 203.025 304.003C201.209 305.747 199.719 308.109 198.556 311.088C197.394 314.067 196.558 317.446 196.049 321.225C195.613 324.931 195.395 328.819 195.395 332.888C195.395 335.94 195.504 339.101 195.722 342.371C195.94 345.641 196.34 348.802 196.921 351.854C197.575 354.906 198.447 357.667 199.537 360.138C200.7 362.609 202.153 364.571 203.897 366.024C205.714 367.477 207.93 368.204 210.546 368.204ZM278.656 374.744C273.133 374.744 268.483 373.581 264.704 371.256C260.925 368.858 257.91 365.733 255.657 361.882C253.404 357.958 251.769 353.671 250.752 349.02C249.807 344.369 249.335 339.755 249.335 335.177C249.335 330.599 249.916 325.948 251.079 321.225C252.314 316.502 254.167 312.178 256.638 308.254C259.109 304.257 262.197 301.06 265.903 298.662C269.609 296.191 274.005 294.956 279.092 294.956C284.397 294.956 288.866 296.155 292.499 298.553C296.205 300.951 299.148 304.112 301.328 308.036C303.581 311.887 305.216 316.138 306.233 320.789C307.25 325.44 307.759 330.054 307.759 334.632C307.759 339.137 307.178 343.752 306.015 348.475C304.925 353.198 303.181 357.558 300.783 361.555C298.458 365.479 295.442 368.676 291.736 371.147C288.103 373.545 283.743 374.744 278.656 374.744ZM279.31 368.204C281.999 368.204 284.251 367.332 286.068 365.588C287.885 363.844 289.265 361.519 290.21 358.612C291.227 355.633 291.954 352.29 292.39 348.584C292.826 344.805 293.044 340.918 293.044 336.921C293.044 332.488 292.826 328.165 292.39 323.95C292.027 319.735 291.336 315.957 290.319 312.614C289.302 309.199 287.848 306.474 285.959 304.439C284.142 302.404 281.781 301.387 278.874 301.387C276.04 301.387 273.678 302.259 271.789 304.003C269.972 305.747 268.483 308.109 267.32 311.088C266.157 314.067 265.322 317.446 264.813 321.225C264.377 324.931 264.159 328.819 264.159 332.888C264.159 335.94 264.268 339.101 264.486 342.371C264.704 345.641 265.104 348.802 265.685 351.854C266.339 354.906 267.211 357.667 268.301 360.138C269.464 362.609 270.917 364.571 272.661 366.024C274.478 367.477 276.694 368.204 279.31 368.204ZM317.554 329.836H366.168V337.357H317.554V329.836ZM345.567 309.453V358.067H338.155V309.453H345.567ZM435.27 373C435.052 371.91 434.907 371.002 434.834 370.275C434.834 369.476 434.798 368.567 434.725 367.55C432.255 370.021 429.602 371.837 426.768 373C424.007 374.163 421.137 374.744 418.157 374.744C413.216 374.744 409.401 373.4 406.712 370.711C404.096 368.022 402.788 364.716 402.788 360.792C402.788 357.304 403.733 354.361 405.622 351.963C407.512 349.492 409.982 347.494 413.034 345.968C416.086 344.369 419.465 343.17 423.171 342.371C426.877 341.499 430.547 341.027 434.18 340.954V334.959C434.18 332.852 433.926 330.926 433.417 329.182C432.981 327.365 432.146 325.948 430.91 324.931C429.675 323.841 427.858 323.296 425.46 323.296C423.862 323.369 422.227 323.732 420.555 324.386C418.957 324.967 417.685 325.912 416.74 327.22C417.322 327.874 417.685 328.601 417.83 329.4C417.976 330.127 418.048 330.781 418.048 331.362C418.048 332.67 417.54 334.051 416.522 335.504C415.505 336.885 413.87 337.539 411.617 337.466C409.655 337.393 408.129 336.703 407.039 335.395C406.022 334.087 405.513 332.525 405.513 330.708C405.513 327.947 406.494 325.549 408.456 323.514C410.491 321.407 413.216 319.772 416.631 318.609C420.047 317.374 423.862 316.756 428.076 316.756C434.326 316.756 439.122 318.391 442.464 321.661C445.807 324.931 447.442 330.163 447.369 337.357C447.369 339.9 447.369 342.226 447.369 344.333C447.369 346.368 447.333 348.439 447.26 350.546C447.26 352.581 447.26 354.87 447.26 357.413C447.26 358.503 447.224 359.884 447.151 361.555C447.079 363.154 446.97 364.752 446.824 366.351C448.132 366.206 449.44 366.133 450.748 366.133C452.129 366.06 453.255 365.988 454.127 365.915V373H435.27ZM434.071 347.385C431.891 347.53 429.748 347.894 427.64 348.475C425.533 348.984 423.644 349.71 421.972 350.655C420.301 351.6 418.957 352.799 417.939 354.252C416.995 355.633 416.559 357.231 416.631 359.048C416.704 361.301 417.431 362.972 418.811 364.062C420.192 365.079 421.791 365.588 423.607 365.588C425.715 365.588 427.604 365.152 429.275 364.28C431.019 363.408 432.618 362.245 434.071 360.792C434.071 360.065 434.071 359.302 434.071 358.503C434.071 357.704 434.071 356.904 434.071 356.105C434.071 355.088 434.071 353.816 434.071 352.29C434.071 350.764 434.071 349.129 434.071 347.385ZM459.303 367.223C461.41 367.223 462.9 366.787 463.772 365.915C464.717 364.97 465.262 363.662 465.407 361.991C465.625 360.32 465.734 358.43 465.734 356.323V309.235C465.734 308 465.77 306.655 465.843 305.202C465.916 303.676 466.025 302.114 466.17 300.515C464.935 300.588 463.59 300.66 462.137 300.733C460.684 300.806 459.448 300.878 458.431 300.951V293.866C461.774 293.866 464.499 293.721 466.606 293.43C468.786 293.067 470.457 292.631 471.62 292.122C472.855 291.613 473.727 291.141 474.236 290.705H479.141L479.25 357.413C479.25 358.576 479.214 359.993 479.141 361.664C479.068 363.263 478.923 364.825 478.705 366.351C479.94 366.206 481.212 366.133 482.52 366.133C483.828 366.06 484.918 366.024 485.79 366.024V373H459.303V367.223ZM493.401 367.223C495.509 367.223 496.998 366.787 497.87 365.915C498.742 364.97 499.287 363.662 499.505 361.991C499.723 360.32 499.832 358.43 499.832 356.323V335.94C499.832 334.705 499.869 333.36 499.941 331.907C500.014 330.381 500.123 328.819 500.268 327.22C499.033 327.293 497.689 327.365 496.235 327.438C494.782 327.511 493.583 327.583 492.638 327.656V320.571C495.908 320.571 498.597 320.426 500.704 320.135C502.884 319.772 504.556 319.336 505.718 318.827C506.954 318.318 507.826 317.846 508.334 317.41H513.239V357.413C513.239 358.576 513.203 359.993 513.13 361.664C513.13 363.263 513.021 364.825 512.803 366.351C513.966 366.206 515.201 366.133 516.509 366.133C517.89 366.06 519.016 366.024 519.888 366.024V373H493.401V367.223ZM505.936 308.036C503.829 308.036 502.049 307.273 500.595 305.747C499.142 304.148 498.415 302.223 498.415 299.97C498.415 297.717 499.142 295.792 500.595 294.193C502.121 292.594 503.902 291.795 505.936 291.795C508.044 291.795 509.788 292.594 511.168 294.193C512.622 295.792 513.348 297.717 513.348 299.97C513.348 302.223 512.658 304.148 511.277 305.747C509.897 307.273 508.116 308.036 505.936 308.036ZM527.357 373V367.223C529.465 367.223 530.954 366.787 531.826 365.915C532.698 364.97 533.243 363.662 533.461 361.991C533.679 360.32 533.788 358.43 533.788 356.323V335.831C533.788 334.523 533.825 333.142 533.897 331.689C533.97 330.236 534.079 328.746 534.224 327.22C532.989 327.293 531.645 327.365 530.191 327.438C528.738 327.511 527.539 327.583 526.594 327.656V320.571C529.864 320.571 532.553 320.426 534.66 320.135C536.768 319.772 538.403 319.336 539.565 318.827C540.728 318.318 541.564 317.846 542.072 317.41H546.65C546.796 318.137 546.868 319.045 546.868 320.135C546.941 321.152 547.014 322.097 547.086 322.969C549.484 321.08 552.1 319.59 554.934 318.5C557.768 317.337 560.53 316.756 563.218 316.756C566.634 316.756 569.468 317.374 571.72 318.609C574.046 319.844 575.862 321.625 577.17 323.95C579.714 321.843 582.584 320.135 585.781 318.827C588.979 317.446 592.067 316.756 595.046 316.756C601.078 316.756 605.583 318.536 608.562 322.097C611.614 325.585 613.104 331.544 613.031 339.973V357.413C613.031 358.576 612.995 359.993 612.922 361.664C612.85 363.263 612.741 364.825 612.595 366.351C613.758 366.206 614.993 366.133 616.301 366.133C617.609 366.06 618.699 366.024 619.571 366.024V373H593.738V367.223C595.628 367.223 596.972 366.787 597.771 365.915C598.571 364.97 599.043 363.662 599.188 361.991C599.406 360.32 599.515 358.43 599.515 356.323V340.082C599.515 334.85 598.68 331.108 597.008 328.855C595.337 326.602 592.975 325.476 589.923 325.476C587.889 325.403 585.927 325.803 584.037 326.675C582.221 327.474 580.622 328.455 579.241 329.618C579.605 330.999 579.859 332.488 580.004 334.087C580.15 335.686 580.222 337.393 580.222 339.21C580.222 342.262 580.222 345.314 580.222 348.366C580.222 351.345 580.186 354.361 580.113 357.413C580.113 358.576 580.077 359.993 580.004 361.664C580.004 363.263 579.895 364.825 579.677 366.351C580.84 366.206 582.075 366.133 583.383 366.133C584.691 366.06 585.818 366.024 586.762 366.024V373H560.602V367.223C562.564 367.223 563.945 366.787 564.744 365.915C565.616 364.97 566.161 363.662 566.379 361.991C566.597 360.32 566.706 358.43 566.706 356.323V339.864C566.706 334.632 565.907 330.926 564.308 328.746C562.782 326.493 560.493 325.331 557.441 325.258C555.479 325.258 553.59 325.694 551.773 326.566C550.029 327.438 548.503 328.492 547.195 329.727C547.195 330.672 547.195 331.616 547.195 332.561C547.195 333.433 547.195 334.341 547.195 335.286V357.413C547.195 358.576 547.159 359.993 547.086 361.664C547.086 363.263 546.977 364.825 546.759 366.351C547.922 366.206 549.085 366.133 550.247 366.133C551.483 366.06 552.536 366.024 553.408 366.024V373H527.357ZM652.722 374.744C647.49 374.744 642.839 373.581 638.77 371.256C634.7 368.858 631.539 365.515 629.287 361.228C627.034 356.868 625.908 351.745 625.908 345.859C625.908 340.772 627.034 336.013 629.287 331.58C631.539 327.147 634.7 323.587 638.77 320.898C642.912 318.137 647.708 316.756 653.158 316.756C656.21 316.756 659.153 317.192 661.987 318.064C664.821 318.936 667.364 320.389 669.617 322.424C671.869 324.459 673.65 327.147 674.958 330.49C676.338 333.833 676.992 337.902 676.92 342.698L640.296 343.352C640.296 347.857 640.804 351.854 641.822 355.342C642.912 358.757 644.656 361.482 647.054 363.517C649.452 365.479 652.613 366.46 656.537 366.46C658.281 366.46 660.134 366.169 662.096 365.588C664.13 364.934 666.129 363.989 668.091 362.754C670.053 361.446 671.797 359.847 673.323 357.958L677.465 361.773C675.067 365.261 672.414 367.95 669.508 369.839C666.601 371.728 663.694 373 660.788 373.654C657.881 374.381 655.192 374.744 652.722 374.744ZM640.841 336.812H663.513C663.44 333.905 663.004 331.471 662.205 329.509C661.478 327.474 660.388 325.948 658.935 324.931C657.481 323.841 655.701 323.296 653.594 323.296C650.033 323.296 647.163 324.495 644.983 326.893C642.875 329.218 641.495 332.525 640.841 336.812ZM685.429 373V367.223C687.536 367.223 689.026 366.787 689.898 365.915C690.77 364.97 691.315 363.662 691.533 361.991C691.751 360.32 691.86 358.43 691.86 356.323V335.831C691.86 334.523 691.896 333.142 691.969 331.689C692.041 330.236 692.15 328.746 692.296 327.22C691.133 327.293 689.789 327.365 688.263 327.438C686.809 327.511 685.61 327.583 684.666 327.656V320.571C687.936 320.571 690.624 320.426 692.732 320.135C694.839 319.772 696.474 319.336 697.637 318.827C698.799 318.318 699.635 317.846 700.144 317.41H704.722C704.867 318.209 704.94 318.863 704.94 319.372C704.94 319.881 704.976 320.426 705.049 321.007C705.121 321.516 705.23 322.279 705.376 323.296C706.829 322.061 708.5 320.971 710.39 320.026C712.352 319.009 714.314 318.209 716.276 317.628C718.238 317.047 720.054 316.756 721.726 316.756C728.266 316.756 732.953 318.682 735.787 322.533C738.621 326.384 740.038 332.525 740.038 340.954V357.413C740.038 358.576 740.001 359.993 739.929 361.664C739.929 363.263 739.82 364.825 739.602 366.351C740.837 366.206 742.109 366.133 743.417 366.133C744.725 366.06 745.815 366.024 746.687 366.024V373H720.2V367.223C722.307 367.223 723.797 366.787 724.669 365.915C725.613 364.97 726.195 363.662 726.413 361.991C726.631 360.32 726.74 358.43 726.74 356.323L726.631 340.845C726.631 335.613 725.831 331.725 724.233 329.182C722.707 326.566 720.163 325.258 716.603 325.258C714.495 325.331 712.424 325.839 710.39 326.784C708.355 327.729 706.647 328.928 705.267 330.381C705.339 331.253 705.376 332.161 705.376 333.106C705.376 334.051 705.376 334.995 705.376 335.94L705.267 357.413C705.267 358.576 705.23 359.993 705.158 361.664C705.158 363.263 705.049 364.825 704.831 366.351C705.993 366.206 707.229 366.133 708.537 366.133C709.917 366.06 711.044 366.024 711.916 366.024V373H685.429ZM774.383 374.744C772.348 374.744 770.35 374.49 768.388 373.981C766.498 373.472 764.754 372.528 763.156 371.147C761.63 369.766 760.394 367.732 759.45 365.043C758.505 362.282 758.033 358.648 758.033 354.143L758.251 326.021L750.512 326.13V318.5C752.692 318.427 754.799 317.701 756.834 316.32C758.868 314.867 760.649 312.977 762.175 310.652C763.701 308.327 764.718 305.856 765.227 303.24H771.876L771.767 318.5H787.136V325.476L771.767 325.803L771.658 353.816C771.658 355.996 771.839 358.031 772.203 359.92C772.639 361.737 773.365 363.19 774.383 364.28C775.473 365.37 776.926 365.915 778.743 365.915C780.123 365.915 781.686 365.479 783.43 364.607C785.246 363.735 787.063 361.991 788.88 359.375L793.349 363.408C791.532 366.169 789.643 368.313 787.681 369.839C785.791 371.365 783.938 372.491 782.122 373.218C780.378 373.945 778.815 374.381 777.435 374.526C776.054 374.671 775.037 374.744 774.383 374.744ZM824.01 374.744C818.851 374.744 814.164 373.618 809.949 371.365C805.734 369.04 802.392 365.806 799.921 361.664C797.523 357.449 796.324 352.544 796.324 346.949C796.324 341.063 797.559 335.831 800.03 331.253C802.501 326.675 805.807 323.114 809.949 320.571C814.164 318.028 818.778 316.756 823.792 316.756C828.951 316.756 833.602 317.919 837.744 320.244C841.886 322.569 845.156 325.803 847.554 329.945C850.025 334.087 851.26 338.992 851.26 344.66C851.26 350.619 850.061 355.887 847.663 360.465C845.338 364.97 842.104 368.495 837.962 371.038C833.893 373.509 829.242 374.744 824.01 374.744ZM824.555 368.095C827.825 368.095 830.332 367.078 832.076 365.043C833.82 363.008 835.019 360.429 835.673 357.304C836.4 354.107 836.763 350.837 836.763 347.494C836.763 344.66 836.509 341.79 836 338.883C835.564 335.976 834.837 333.36 833.82 331.035C832.803 328.637 831.458 326.748 829.787 325.367C828.116 323.914 826.081 323.187 823.683 323.187C820.486 323.26 817.942 324.313 816.053 326.348C814.164 328.383 812.783 330.962 811.911 334.087C811.112 337.212 810.712 340.518 810.712 344.006C810.712 347.93 811.184 351.781 812.129 355.56C813.074 359.266 814.563 362.318 816.598 364.716C818.633 367.041 821.285 368.168 824.555 368.095ZM883.771 374.744C880.428 374.744 877.304 374.308 874.397 373.436C871.49 372.564 869.165 371.51 867.421 370.275L867.748 373.763H860.663L860.118 355.015H866.004C866.222 357.486 867.094 359.738 868.62 361.773C870.146 363.735 872.108 365.297 874.506 366.46C876.977 367.55 879.702 368.095 882.681 368.095C884.134 368.095 885.515 367.877 886.823 367.441C888.204 367.005 889.33 366.315 890.202 365.37C891.147 364.353 891.619 363.081 891.619 361.555C891.619 359.956 891.074 358.648 889.984 357.631C888.967 356.614 887.513 355.669 885.624 354.797C883.735 353.925 881.518 353.017 878.975 352.072C876.722 351.2 874.47 350.292 872.217 349.347C869.964 348.402 867.893 347.276 866.004 345.968C864.115 344.587 862.589 342.916 861.426 340.954C860.263 338.992 859.682 336.594 859.682 333.76C859.682 331.798 860.045 329.836 860.772 327.874C861.499 325.912 862.661 324.095 864.26 322.424C865.859 320.68 867.893 319.299 870.364 318.282C872.907 317.265 875.996 316.756 879.629 316.756C881.591 316.756 883.807 317.083 886.278 317.737C888.749 318.318 890.929 319.336 892.818 320.789L892.709 317.301H899.794V336.485H893.908C893.545 333.942 892.745 331.689 891.51 329.727C890.275 327.692 888.64 326.094 886.605 324.931C884.57 323.768 882.136 323.187 879.302 323.187C876.977 323.187 875.015 323.768 873.416 324.931C871.817 326.021 871.018 327.656 871.018 329.836C871.018 331.653 871.636 333.142 872.871 334.305C874.106 335.468 875.778 336.449 877.885 337.248C879.992 338.047 882.281 338.919 884.752 339.864C888.167 341.027 891.256 342.407 894.017 344.006C896.851 345.605 899.104 347.53 900.775 349.783C902.446 352.036 903.282 354.833 903.282 358.176C903.282 361.955 902.337 365.079 900.448 367.55C898.559 369.948 896.124 371.765 893.145 373C890.166 374.163 887.041 374.744 883.771 374.744ZM90.378 491.744C86.018 491.744 82.1303 490.618 78.715 488.365C75.2997 486.112 72.611 482.915 70.649 478.773C68.7597 474.631 67.815 469.762 67.815 464.167C67.815 458.281 68.9777 453.049 71.303 448.471C73.6283 443.893 76.8257 440.296 80.895 437.68C85.037 435.064 89.7967 433.756 95.174 433.756C97.2813 433.756 99.2433 434.01 101.06 434.519C102.949 434.955 104.584 435.464 105.965 436.045V426.344C105.965 425.254 105.965 423.91 105.965 422.311C106.038 420.712 106.147 419.114 106.292 417.515C105.129 417.588 103.785 417.66 102.259 417.733C100.806 417.806 99.5703 417.878 98.553 417.951V410.866C101.896 410.866 104.621 410.721 106.728 410.43C108.835 410.067 110.47 409.631 111.633 409.122C112.868 408.613 113.74 408.141 114.249 407.705H119.263V474.413C119.263 475.503 119.227 476.884 119.154 478.555C119.081 480.154 118.972 481.752 118.827 483.351C120.062 483.206 121.334 483.133 122.642 483.133C124.023 483.06 125.185 482.988 126.13 482.915V490H107.164C107.019 489.128 106.873 488.256 106.728 487.384C106.655 486.439 106.546 485.567 106.401 484.768C104.148 487.166 101.678 488.91 98.989 490C96.3003 491.163 93.43 491.744 90.378 491.744ZM95.501 483.351C97.5357 483.351 99.4977 482.806 101.387 481.716C103.276 480.553 104.802 479.136 105.965 477.465C105.892 476.448 105.856 475.43 105.856 474.413C105.856 473.323 105.856 472.233 105.856 471.143L105.965 443.239C104.875 442.367 103.494 441.713 101.823 441.277C100.152 440.768 98.444 440.514 96.7 440.514C93.2847 440.587 90.487 441.677 88.307 443.784C86.1997 445.819 84.6373 448.507 83.62 451.85C82.6753 455.193 82.2393 458.826 82.312 462.75C82.312 466.311 82.7843 469.653 83.729 472.778C84.6737 475.903 86.0907 478.446 87.98 480.408C89.942 482.37 92.449 483.351 95.501 483.351ZM159.667 491.744C154.435 491.744 149.784 490.581 145.715 488.256C141.646 485.858 138.485 482.515 136.232 478.228C133.979 473.868 132.853 468.745 132.853 462.859C132.853 457.772 133.979 453.013 136.232 448.58C138.485 444.147 141.646 440.587 145.715 437.898C149.857 435.137 154.653 433.756 160.103 433.756C163.155 433.756 166.098 434.192 168.932 435.064C171.766 435.936 174.309 437.389 176.562 439.424C178.815 441.459 180.595 444.147 181.903 447.49C183.284 450.833 183.938 454.902 183.865 459.698L147.241 460.352C147.241 464.857 147.75 468.854 148.767 472.342C149.857 475.757 151.601 478.482 153.999 480.517C156.397 482.479 159.558 483.46 163.482 483.46C165.226 483.46 167.079 483.169 169.041 482.588C171.076 481.934 173.074 480.989 175.036 479.754C176.998 478.446 178.742 476.847 180.268 474.958L184.41 478.773C182.012 482.261 179.36 484.95 176.453 486.839C173.546 488.728 170.64 490 167.733 490.654C164.826 491.381 162.138 491.744 159.667 491.744ZM147.786 453.812H170.458C170.385 450.905 169.949 448.471 169.15 446.509C168.423 444.474 167.333 442.948 165.88 441.931C164.427 440.841 162.646 440.296 160.539 440.296C156.978 440.296 154.108 441.495 151.928 443.893C149.821 446.218 148.44 449.525 147.786 453.812ZM242.808 491.744C238.448 491.744 234.56 490.618 231.145 488.365C227.729 486.112 225.041 482.915 223.079 478.773C221.189 474.631 220.245 469.762 220.245 464.167C220.245 458.281 221.407 453.049 223.733 448.471C226.058 443.893 229.255 440.296 233.325 437.68C237.467 435.064 242.226 433.756 247.604 433.756C249.711 433.756 251.673 434.01 253.49 434.519C255.379 434.955 257.014 435.464 258.395 436.045V426.344C258.395 425.254 258.395 423.91 258.395 422.311C258.467 420.712 258.576 419.114 258.722 417.515C257.559 417.588 256.215 417.66 254.689 417.733C253.235 417.806 252 417.878 250.983 417.951V410.866C254.325 410.866 257.05 410.721 259.158 410.43C261.265 410.067 262.9 409.631 264.063 409.122C265.298 408.613 266.17 408.141 266.679 407.705H271.693V474.413C271.693 475.503 271.656 476.884 271.584 478.555C271.511 480.154 271.402 481.752 271.257 483.351C272.492 483.206 273.764 483.133 275.072 483.133C276.452 483.06 277.615 482.988 278.56 482.915V490H259.594C259.448 489.128 259.303 488.256 259.158 487.384C259.085 486.439 258.976 485.567 258.831 484.768C256.578 487.166 254.107 488.91 251.419 490C248.73 491.163 245.86 491.744 242.808 491.744ZM247.931 483.351C249.965 483.351 251.927 482.806 253.817 481.716C255.706 480.553 257.232 479.136 258.395 477.465C258.322 476.448 258.286 475.43 258.286 474.413C258.286 473.323 258.286 472.233 258.286 471.143L258.395 443.239C257.305 442.367 255.924 441.713 254.253 441.277C252.581 440.768 250.874 440.514 249.13 440.514C245.714 440.587 242.917 441.677 240.737 443.784C238.629 445.819 237.067 448.507 236.05 451.85C235.105 455.193 234.669 458.826 234.742 462.75C234.742 466.311 235.214 469.653 236.159 472.778C237.103 475.903 238.52 478.446 240.41 480.408C242.372 482.37 244.879 483.351 247.931 483.351ZM286.046 484.223C288.153 484.223 289.643 483.787 290.515 482.915C291.387 481.97 291.932 480.662 292.15 478.991C292.368 477.32 292.477 475.43 292.477 473.323V452.94C292.477 451.705 292.513 450.36 292.586 448.907C292.658 447.381 292.767 445.819 292.913 444.22C291.677 444.293 290.333 444.365 288.88 444.438C287.426 444.511 286.227 444.583 285.283 444.656V437.571C288.553 437.571 291.241 437.426 293.349 437.135C295.529 436.772 297.2 436.336 298.363 435.827C299.598 435.318 300.47 434.846 300.979 434.41H305.884V474.413C305.884 475.576 305.847 476.993 305.775 478.664C305.775 480.263 305.666 481.825 305.448 483.351C306.61 483.206 307.846 483.133 309.154 483.133C310.534 483.06 311.661 483.024 312.533 483.024V490H286.046V484.223ZM298.581 425.036C296.473 425.036 294.693 424.273 293.24 422.747C291.786 421.148 291.06 419.223 291.06 416.97C291.06 414.717 291.786 412.792 293.24 411.193C294.766 409.594 296.546 408.795 298.581 408.795C300.688 408.795 302.432 409.594 303.813 411.193C305.266 412.792 305.993 414.717 305.993 416.97C305.993 419.223 305.302 421.148 303.922 422.747C302.541 424.273 300.761 425.036 298.581 425.036ZM339.853 490.327L323.176 453.267C322.304 451.16 321.65 449.452 321.214 448.144C320.778 446.836 320.451 445.746 320.233 444.874C320.087 444.002 319.942 443.13 319.797 442.258L315.546 442.476V435.5H339.199V441.277C337.455 441.277 336.292 441.749 335.711 442.694C335.202 443.566 335.057 444.765 335.275 446.291C335.565 447.744 336.038 449.307 336.692 450.978L343.232 466.674C343.813 467.982 344.394 469.363 344.976 470.816C345.557 472.197 346.102 473.614 346.611 475.067H346.72C347.228 473.686 347.737 472.306 348.246 470.925C348.827 469.472 349.336 468.018 349.772 466.565L355.767 449.779C356.421 447.962 357.038 446.473 357.62 445.31C358.201 444.147 358.746 443.094 359.255 442.149L352.497 442.476V435.5H372.008V441.277C370.336 441.422 368.883 442.222 367.648 443.675C366.412 445.056 365.322 446.763 364.378 448.798C363.433 450.76 362.561 452.795 361.762 454.902L347.701 490.327H339.853ZM401.937 491.744C396.705 491.744 392.054 490.581 387.985 488.256C383.915 485.858 380.754 482.515 378.502 478.228C376.249 473.868 375.123 468.745 375.123 462.859C375.123 457.772 376.249 453.013 378.502 448.58C380.754 444.147 383.915 440.587 387.985 437.898C392.127 435.137 396.923 433.756 402.373 433.756C405.425 433.756 408.368 434.192 411.202 435.064C414.036 435.936 416.579 437.389 418.832 439.424C421.084 441.459 422.865 444.147 424.173 447.49C425.553 450.833 426.207 454.902 426.135 459.698L389.511 460.352C389.511 464.857 390.019 468.854 391.037 472.342C392.127 475.757 393.871 478.482 396.269 480.517C398.667 482.479 401.828 483.46 405.752 483.46C407.496 483.46 409.349 483.169 411.311 482.588C413.345 481.934 415.344 480.989 417.306 479.754C419.268 478.446 421.012 476.847 422.538 474.958L426.68 478.773C424.282 482.261 421.629 484.95 418.723 486.839C415.816 488.728 412.909 490 410.003 490.654C407.096 491.381 404.407 491.744 401.937 491.744ZM390.056 453.812H412.728C412.655 450.905 412.219 448.471 411.42 446.509C410.693 444.474 409.603 442.948 408.15 441.931C406.696 440.841 404.916 440.296 402.809 440.296C399.248 440.296 396.378 441.495 394.198 443.893C392.09 446.218 390.71 449.525 390.056 453.812ZM434.643 484.223C436.751 484.223 438.24 483.787 439.112 482.915C439.984 481.97 440.529 480.662 440.747 478.991C440.965 477.32 441.074 475.43 441.074 473.323V452.831C441.074 451.523 441.111 450.142 441.183 448.689C441.256 447.236 441.365 445.746 441.51 444.22C440.275 444.293 438.931 444.365 437.477 444.438C436.024 444.438 434.825 444.474 433.88 444.547V437.571H437.913C440.82 437.571 443.254 437.244 445.216 436.59C447.178 435.863 448.559 435.137 449.358 434.41H453.936C454.082 435.282 454.191 436.663 454.263 438.552C454.336 440.441 454.372 442.331 454.372 444.22C456.044 442.04 457.788 440.187 459.604 438.661C461.421 437.062 463.274 435.863 465.163 435.064C467.125 434.192 469.124 433.756 471.158 433.756C473.484 433.756 475.518 434.41 477.262 435.718C479.079 437.026 479.987 439.133 479.987 442.04C479.987 442.985 479.733 444.002 479.224 445.092C478.788 446.182 478.062 447.09 477.044 447.817C476.1 448.544 474.792 448.907 473.12 448.907C471.594 448.907 470.141 448.435 468.76 447.49C467.452 446.473 466.762 444.874 466.689 442.694C465.163 442.621 463.565 443.166 461.893 444.329C460.295 445.492 458.841 446.909 457.533 448.58C456.225 450.251 455.208 451.959 454.481 453.703L454.59 474.413C454.59 475.576 454.554 476.993 454.481 478.664C454.409 480.263 454.3 481.825 454.154 483.351C455.317 483.206 456.552 483.133 457.86 483.133C459.168 483.06 460.258 483.024 461.13 483.024V490H434.643V484.223ZM509.084 491.744C505.741 491.744 502.616 491.308 499.71 490.436C496.803 489.564 494.478 488.51 492.734 487.275L493.061 490.763H485.976L485.431 472.015H491.317C491.535 474.486 492.407 476.738 493.933 478.773C495.459 480.735 497.421 482.297 499.819 483.46C502.289 484.55 505.014 485.095 507.994 485.095C509.447 485.095 510.828 484.877 512.136 484.441C513.516 484.005 514.643 483.315 515.515 482.37C516.459 481.353 516.932 480.081 516.932 478.555C516.932 476.956 516.387 475.648 515.297 474.631C514.279 473.614 512.826 472.669 510.937 471.797C509.047 470.925 506.831 470.017 504.288 469.072C502.035 468.2 499.782 467.292 497.53 466.347C495.277 465.402 493.206 464.276 491.317 462.968C489.427 461.587 487.901 459.916 486.739 457.954C485.576 455.992 484.995 453.594 484.995 450.76C484.995 448.798 485.358 446.836 486.085 444.874C486.811 442.912 487.974 441.095 489.573 439.424C491.171 437.68 493.206 436.299 495.677 435.282C498.22 434.265 501.308 433.756 504.942 433.756C506.904 433.756 509.12 434.083 511.591 434.737C514.061 435.318 516.241 436.336 518.131 437.789L518.022 434.301H525.107V453.485H519.221C518.857 450.942 518.058 448.689 516.823 446.727C515.587 444.692 513.952 443.094 511.918 441.931C509.883 440.768 507.449 440.187 504.615 440.187C502.289 440.187 500.327 440.768 498.729 441.931C497.13 443.021 496.331 444.656 496.331 446.836C496.331 448.653 496.948 450.142 498.184 451.305C499.419 452.468 501.09 453.449 503.198 454.248C505.305 455.047 507.594 455.919 510.065 456.864C513.48 458.027 516.568 459.407 519.33 461.006C522.164 462.605 524.416 464.53 526.088 466.783C527.759 469.036 528.595 471.833 528.595 475.176C528.595 478.955 527.65 482.079 525.761 484.55C523.871 486.948 521.437 488.765 518.458 490C515.478 491.163 512.354 491.744 509.084 491.744ZM568.22 490C568.002 488.91 567.857 488.002 567.784 487.275C567.784 486.476 567.748 485.567 567.675 484.55C565.205 487.021 562.552 488.837 559.718 490C556.957 491.163 554.087 491.744 551.107 491.744C546.166 491.744 542.351 490.4 539.662 487.711C537.046 485.022 535.738 481.716 535.738 477.792C535.738 474.304 536.683 471.361 538.572 468.963C540.462 466.492 542.932 464.494 545.984 462.968C549.036 461.369 552.415 460.17 556.121 459.371C559.827 458.499 563.497 458.027 567.13 457.954V451.959C567.13 449.852 566.876 447.926 566.367 446.182C565.931 444.365 565.096 442.948 563.86 441.931C562.625 440.841 560.808 440.296 558.41 440.296C556.812 440.369 555.177 440.732 553.505 441.386C551.907 441.967 550.635 442.912 549.69 444.22C550.272 444.874 550.635 445.601 550.78 446.4C550.926 447.127 550.998 447.781 550.998 448.362C550.998 449.67 550.49 451.051 549.472 452.504C548.455 453.885 546.82 454.539 544.567 454.466C542.605 454.393 541.079 453.703 539.989 452.395C538.972 451.087 538.463 449.525 538.463 447.708C538.463 444.947 539.444 442.549 541.406 440.514C543.441 438.407 546.166 436.772 549.581 435.609C552.997 434.374 556.812 433.756 561.026 433.756C567.276 433.756 572.072 435.391 575.414 438.661C578.757 441.931 580.392 447.163 580.319 454.357C580.319 456.9 580.319 459.226 580.319 461.333C580.319 463.368 580.283 465.439 580.21 467.546C580.21 469.581 580.21 471.87 580.21 474.413C580.21 475.503 580.174 476.884 580.101 478.555C580.029 480.154 579.92 481.752 579.774 483.351C581.082 483.206 582.39 483.133 583.698 483.133C585.079 483.06 586.205 482.988 587.077 482.915V490H568.22ZM567.021 464.385C564.841 464.53 562.698 464.894 560.59 465.475C558.483 465.984 556.594 466.71 554.922 467.655C553.251 468.6 551.907 469.799 550.889 471.252C549.945 472.633 549.509 474.231 549.581 476.048C549.654 478.301 550.381 479.972 551.761 481.062C553.142 482.079 554.741 482.588 556.557 482.588C558.665 482.588 560.554 482.152 562.225 481.28C563.969 480.408 565.568 479.245 567.021 477.792C567.021 477.065 567.021 476.302 567.021 475.503C567.021 474.704 567.021 473.904 567.021 473.105C567.021 472.088 567.021 470.816 567.021 469.29C567.021 467.764 567.021 466.129 567.021 464.385ZM617.977 491.744C614.635 491.744 611.51 491.308 608.603 490.436C605.697 489.564 603.371 488.51 601.627 487.275L601.954 490.763H594.869L594.324 472.015H600.21C600.428 474.486 601.3 476.738 602.826 478.773C604.352 480.735 606.314 482.297 608.712 483.46C611.183 484.55 613.908 485.095 616.887 485.095C618.341 485.095 619.721 484.877 621.029 484.441C622.41 484.005 623.536 483.315 624.408 482.37C625.353 481.353 625.825 480.081 625.825 478.555C625.825 476.956 625.28 475.648 624.19 474.631C623.173 473.614 621.72 472.669 619.83 471.797C617.941 470.925 615.725 470.017 613.181 469.072C610.929 468.2 608.676 467.292 606.423 466.347C604.171 465.402 602.1 464.276 600.21 462.968C598.321 461.587 596.795 459.916 595.632 457.954C594.47 455.992 593.888 453.594 593.888 450.76C593.888 448.798 594.252 446.836 594.978 444.874C595.705 442.912 596.868 441.095 598.466 439.424C600.065 437.68 602.1 436.299 604.57 435.282C607.114 434.265 610.202 433.756 613.835 433.756C615.797 433.756 618.014 434.083 620.484 434.737C622.955 435.318 625.135 436.336 627.024 437.789L626.915 434.301H634V453.485H628.114C627.751 450.942 626.952 448.689 625.716 446.727C624.481 444.692 622.846 443.094 620.811 441.931C618.777 440.768 616.342 440.187 613.508 440.187C611.183 440.187 609.221 440.768 607.622 441.931C606.024 443.021 605.224 444.656 605.224 446.836C605.224 448.653 605.842 450.142 607.077 451.305C608.313 452.468 609.984 453.449 612.091 454.248C614.199 455.047 616.488 455.919 618.958 456.864C622.374 458.027 625.462 459.407 628.223 461.006C631.057 462.605 633.31 464.53 634.981 466.783C636.653 469.036 637.488 471.833 637.488 475.176C637.488 478.955 636.544 482.079 634.654 484.55C632.765 486.948 630.331 488.765 627.351 490C624.372 491.163 621.247 491.744 617.977 491.744ZM674.465 490V484.223C676.572 484.223 678.062 483.787 678.934 482.915C679.806 481.97 680.351 480.662 680.569 478.991C680.787 477.32 680.896 475.43 680.896 473.323V452.831C680.896 451.523 680.932 450.142 681.005 448.689C681.077 447.236 681.186 445.746 681.332 444.22C680.096 444.293 678.752 444.365 677.299 444.438C675.845 444.511 674.646 444.583 673.702 444.656V437.571C676.972 437.571 679.66 437.426 681.768 437.135C683.875 436.772 685.51 436.336 686.673 435.827C687.835 435.318 688.671 434.846 689.18 434.41H693.758C693.903 435.137 693.976 436.045 693.976 437.135C694.048 438.152 694.121 439.097 694.194 439.969C696.592 438.08 699.208 436.59 702.042 435.5C704.876 434.337 707.637 433.756 710.326 433.756C713.741 433.756 716.575 434.374 718.828 435.609C721.153 436.844 722.97 438.625 724.278 440.95C726.821 438.843 729.691 437.135 732.889 435.827C736.086 434.446 739.174 433.756 742.154 433.756C748.185 433.756 752.69 435.536 755.67 439.097C758.722 442.585 760.211 448.544 760.139 456.973V474.413C760.139 475.576 760.102 476.993 760.03 478.664C759.957 480.263 759.848 481.825 759.703 483.351C760.865 483.206 762.101 483.133 763.409 483.133C764.717 483.06 765.807 483.024 766.679 483.024V490H740.846V484.223C742.735 484.223 744.079 483.787 744.879 482.915C745.678 481.97 746.15 480.662 746.296 478.991C746.514 477.32 746.623 475.43 746.623 473.323V457.082C746.623 451.85 745.787 448.108 744.116 445.855C742.444 443.602 740.083 442.476 737.031 442.476C734.996 442.403 733.034 442.803 731.145 443.675C729.328 444.474 727.729 445.455 726.349 446.618C726.712 447.999 726.966 449.488 727.112 451.087C727.257 452.686 727.33 454.393 727.33 456.21C727.33 459.262 727.33 462.314 727.33 465.366C727.33 468.345 727.293 471.361 727.221 474.413C727.221 475.576 727.184 476.993 727.112 478.664C727.112 480.263 727.003 481.825 726.785 483.351C727.947 483.206 729.183 483.133 730.491 483.133C731.799 483.06 732.925 483.024 733.87 483.024V490H707.71V484.223C709.672 484.223 711.052 483.787 711.852 482.915C712.724 481.97 713.269 480.662 713.487 478.991C713.705 477.32 713.814 475.43 713.814 473.323V456.864C713.814 451.632 713.014 447.926 711.416 445.746C709.89 443.493 707.601 442.331 704.549 442.258C702.587 442.258 700.697 442.694 698.881 443.566C697.137 444.438 695.611 445.492 694.303 446.727C694.303 447.672 694.303 448.616 694.303 449.561C694.303 450.433 694.303 451.341 694.303 452.286V474.413C694.303 475.576 694.266 476.993 694.194 478.664C694.194 480.263 694.085 481.825 693.867 483.351C695.029 483.206 696.192 483.133 697.355 483.133C698.59 483.06 699.644 483.024 700.516 483.024V490H674.465ZM805.061 490C804.843 488.91 804.698 488.002 804.625 487.275C804.625 486.476 804.589 485.567 804.516 484.55C802.046 487.021 799.393 488.837 796.559 490C793.798 491.163 790.928 491.744 787.948 491.744C783.007 491.744 779.192 490.4 776.503 487.711C773.887 485.022 772.579 481.716 772.579 477.792C772.579 474.304 773.524 471.361 775.413 468.963C777.303 466.492 779.773 464.494 782.825 462.968C785.877 461.369 789.256 460.17 792.962 459.371C796.668 458.499 800.338 458.027 803.971 457.954V451.959C803.971 449.852 803.717 447.926 803.208 446.182C802.772 444.365 801.937 442.948 800.701 441.931C799.466 440.841 797.649 440.296 795.251 440.296C793.653 440.369 792.018 440.732 790.346 441.386C788.748 441.967 787.476 442.912 786.531 444.22C787.113 444.874 787.476 445.601 787.621 446.4C787.767 447.127 787.839 447.781 787.839 448.362C787.839 449.67 787.331 451.051 786.313 452.504C785.296 453.885 783.661 454.539 781.408 454.466C779.446 454.393 777.92 453.703 776.83 452.395C775.813 451.087 775.304 449.525 775.304 447.708C775.304 444.947 776.285 442.549 778.247 440.514C780.282 438.407 783.007 436.772 786.422 435.609C789.838 434.374 793.653 433.756 797.867 433.756C804.117 433.756 808.913 435.391 812.255 438.661C815.598 441.931 817.233 447.163 817.16 454.357C817.16 456.9 817.16 459.226 817.16 461.333C817.16 463.368 817.124 465.439 817.051 467.546C817.051 469.581 817.051 471.87 817.051 474.413C817.051 475.503 817.015 476.884 816.942 478.555C816.87 480.154 816.761 481.752 816.615 483.351C817.923 483.206 819.231 483.133 820.539 483.133C821.92 483.06 823.046 482.988 823.918 482.915V490H805.061ZM803.862 464.385C801.682 464.53 799.539 464.894 797.431 465.475C795.324 465.984 793.435 466.71 791.763 467.655C790.092 468.6 788.748 469.799 787.73 471.252C786.786 472.633 786.35 474.231 786.422 476.048C786.495 478.301 787.222 479.972 788.602 481.062C789.983 482.079 791.582 482.588 793.398 482.588C795.506 482.588 797.395 482.152 799.066 481.28C800.81 480.408 802.409 479.245 803.862 477.792C803.862 477.065 803.862 476.302 803.862 475.503C803.862 474.704 803.862 473.904 803.862 473.105C803.862 472.088 803.862 470.816 803.862 469.29C803.862 467.764 803.862 466.129 803.862 464.385ZM830.62 484.223C832.727 484.223 834.217 483.787 835.089 482.915C835.961 481.97 836.506 480.662 836.724 478.991C836.942 477.32 837.051 475.43 837.051 473.323V452.831C837.051 451.523 837.087 450.142 837.16 448.689C837.233 447.236 837.342 445.746 837.487 444.22C836.252 444.293 834.907 444.365 833.454 444.438C832.001 444.438 830.802 444.474 829.857 444.547V437.571H833.89C836.797 437.571 839.231 437.244 841.193 436.59C843.155 435.863 844.536 435.137 845.335 434.41H849.913C850.058 435.282 850.167 436.663 850.24 438.552C850.313 440.441 850.349 442.331 850.349 444.22C852.02 442.04 853.764 440.187 855.581 438.661C857.398 437.062 859.251 435.863 861.14 435.064C863.102 434.192 865.1 433.756 867.135 433.756C869.46 433.756 871.495 434.41 873.239 435.718C875.056 437.026 875.964 439.133 875.964 442.04C875.964 442.985 875.71 444.002 875.201 445.092C874.765 446.182 874.038 447.09 873.021 447.817C872.076 448.544 870.768 448.907 869.097 448.907C867.571 448.907 866.118 448.435 864.737 447.49C863.429 446.473 862.739 444.874 862.666 442.694C861.14 442.621 859.541 443.166 857.87 444.329C856.271 445.492 854.818 446.909 853.51 448.58C852.202 450.251 851.185 451.959 850.458 453.703L850.567 474.413C850.567 475.576 850.531 476.993 850.458 478.664C850.385 480.263 850.276 481.825 850.131 483.351C851.294 483.206 852.529 483.133 853.837 483.133C855.145 483.06 856.235 483.024 857.107 483.024V490H830.62V484.223ZM906.381 491.744C901.512 491.744 897.007 490.654 892.865 488.474C888.796 486.294 885.526 483.133 883.055 478.991C880.657 474.776 879.458 469.726 879.458 463.84C879.458 459.843 880.148 456.065 881.529 452.504C882.91 448.871 884.835 445.673 887.306 442.912C889.849 440.078 892.865 437.862 896.353 436.263C899.841 434.592 903.692 433.756 907.907 433.756C912.34 433.756 916.082 434.446 919.134 435.827C922.186 437.135 924.511 438.915 926.11 441.168C927.709 443.348 928.508 445.673 928.508 448.144C928.508 450.106 927.927 451.814 926.764 453.267C925.674 454.72 924.075 455.483 921.968 455.556C919.497 455.629 917.753 454.938 916.736 453.485C915.791 451.959 915.319 450.542 915.319 449.234C915.319 448.507 915.428 447.744 915.646 446.945C915.864 446.073 916.227 445.274 916.736 444.547C916.227 443.239 915.392 442.294 914.229 441.713C913.066 441.059 911.867 440.623 910.632 440.405C909.397 440.187 908.416 440.114 907.689 440.187C903.692 440.332 900.386 442.149 897.77 445.637C895.154 449.125 893.846 454.212 893.846 460.897C893.846 464.894 894.391 468.6 895.481 472.015C896.644 475.358 898.388 478.083 900.713 480.19C903.038 482.225 906.018 483.278 909.651 483.351C912.848 483.424 915.937 482.661 918.916 481.062C921.895 479.391 924.33 477.247 926.219 474.631L930.579 478.664C928.181 482.079 925.601 484.732 922.84 486.621C920.079 488.51 917.281 489.818 914.447 490.545C911.686 491.344 908.997 491.744 906.381 491.744ZM968.561 490C968.343 488.91 968.198 488.002 968.125 487.275C968.125 486.476 968.089 485.567 968.016 484.55C965.546 487.021 962.893 488.837 960.059 490C957.298 491.163 954.428 491.744 951.448 491.744C946.507 491.744 942.692 490.4 940.003 487.711C937.387 485.022 936.079 481.716 936.079 477.792C936.079 474.304 937.024 471.361 938.913 468.963C940.803 466.492 943.273 464.494 946.325 462.968C949.377 461.369 952.756 460.17 956.462 459.371C960.168 458.499 963.838 458.027 967.471 457.954V451.959C967.471 449.852 967.217 447.926 966.708 446.182C966.272 444.365 965.437 442.948 964.201 441.931C962.966 440.841 961.149 440.296 958.751 440.296C957.153 440.369 955.518 440.732 953.846 441.386C952.248 441.967 950.976 442.912 950.031 444.22C950.613 444.874 950.976 445.601 951.121 446.4C951.267 447.127 951.339 447.781 951.339 448.362C951.339 449.67 950.831 451.051 949.813 452.504C948.796 453.885 947.161 454.539 944.908 454.466C942.946 454.393 941.42 453.703 940.33 452.395C939.313 451.087 938.804 449.525 938.804 447.708C938.804 444.947 939.785 442.549 941.747 440.514C943.782 438.407 946.507 436.772 949.922 435.609C953.338 434.374 957.153 433.756 961.367 433.756C967.617 433.756 972.413 435.391 975.755 438.661C979.098 441.931 980.733 447.163 980.66 454.357C980.66 456.9 980.66 459.226 980.66 461.333C980.66 463.368 980.624 465.439 980.551 467.546C980.551 469.581 980.551 471.87 980.551 474.413C980.551 475.503 980.515 476.884 980.442 478.555C980.37 480.154 980.261 481.752 980.115 483.351C981.423 483.206 982.731 483.133 984.039 483.133C985.42 483.06 986.546 482.988 987.418 482.915V490H968.561ZM967.362 464.385C965.182 464.53 963.039 464.894 960.931 465.475C958.824 465.984 956.935 466.71 955.263 467.655C953.592 468.6 952.248 469.799 951.23 471.252C950.286 472.633 949.85 474.231 949.922 476.048C949.995 478.301 950.722 479.972 952.102 481.062C953.483 482.079 955.082 482.588 956.898 482.588C959.006 482.588 960.895 482.152 962.566 481.28C964.31 480.408 965.909 479.245 967.362 477.792C967.362 477.065 967.362 476.302 967.362 475.503C967.362 474.704 967.362 473.904 967.362 473.105C967.362 472.088 967.362 470.816 967.362 469.29C967.362 467.764 967.362 466.129 967.362 464.385ZM1018.32 491.744C1014.98 491.744 1011.85 491.308 1008.94 490.436C1006.04 489.564 1003.71 488.51 1001.97 487.275L1002.29 490.763H995.21L994.665 472.015H1000.55C1000.77 474.486 1001.64 476.738 1003.17 478.773C1004.69 480.735 1006.65 482.297 1009.05 483.46C1011.52 484.55 1014.25 485.095 1017.23 485.095C1018.68 485.095 1020.06 484.877 1021.37 484.441C1022.75 484.005 1023.88 483.315 1024.75 482.37C1025.69 481.353 1026.17 480.081 1026.17 478.555C1026.17 476.956 1025.62 475.648 1024.53 474.631C1023.51 473.614 1022.06 472.669 1020.17 471.797C1018.28 470.925 1016.07 470.017 1013.52 469.072C1011.27 468.2 1009.02 467.292 1006.76 466.347C1004.51 465.402 1002.44 464.276 1000.55 462.968C998.662 461.587 997.136 459.916 995.973 457.954C994.81 455.992 994.229 453.594 994.229 450.76C994.229 448.798 994.592 446.836 995.319 444.874C996.046 442.912 997.208 441.095 998.807 439.424C1000.41 437.68 1002.44 436.299 1004.91 435.282C1007.45 434.265 1010.54 433.756 1014.18 433.756C1016.14 433.756 1018.35 434.083 1020.82 434.737C1023.3 435.318 1025.48 436.336 1027.36 437.789L1027.26 434.301H1034.34V453.485H1028.45C1028.09 450.942 1027.29 448.689 1026.06 446.727C1024.82 444.692 1023.19 443.094 1021.15 441.931C1019.12 440.768 1016.68 440.187 1013.85 440.187C1011.52 440.187 1009.56 440.768 1007.96 441.931C1006.36 443.021 1005.56 444.656 1005.56 446.836C1005.56 448.653 1006.18 450.142 1007.42 451.305C1008.65 452.468 1010.32 453.449 1012.43 454.248C1014.54 455.047 1016.83 455.919 1019.3 456.864C1022.71 458.027 1025.8 459.407 1028.56 461.006C1031.4 462.605 1033.65 464.53 1035.32 466.783C1036.99 469.036 1037.83 471.833 1037.83 475.176C1037.83 478.955 1036.88 482.079 1034.99 484.55C1033.11 486.948 1030.67 488.765 1027.69 490C1024.71 491.163 1021.59 491.744 1018.32 491.744Z" fill="white"/>
</svg>
