<svg width="80" height="80" viewBox="0 0 80 80" fill="none" xmlns="http://www.w3.org/2000/svg">
<rect x="3" y="3" width="74" height="74" rx="8" stroke="#d97706" stroke-width="6"/>
<path d="M36.3789 30.4092L32 23" stroke="#d97706" stroke-width="6" stroke-linecap="round"/>
<mask id="path-3-inside-1_1722_809" fill="white">
<path d="M71 40C71 31.7783 67.7339 23.8933 61.9203 18.0797C56.1067 12.2661 48.2217 9 40 9C31.7783 9 23.8933 12.2661 18.0797 18.0797C12.2661 23.8933 9 31.7783 9 40L34.0753 40C34.0753 38.4287 34.6995 36.9217 35.8106 35.8106C36.9217 34.6995 38.4287 34.0753 40 34.0753C41.5713 34.0753 43.0783 34.6995 44.1894 35.8106C45.3005 36.9217 45.9247 38.4287 45.9247 40H71Z"/>
</mask>
<path d="M71 40C71 31.7783 67.7339 23.8933 61.9203 18.0797C56.1067 12.2661 48.2217 9 40 9C31.7783 9 23.8933 12.2661 18.0797 18.0797C12.2661 23.8933 9 31.7783 9 40L34.0753 40C34.0753 38.4287 34.6995 36.9217 35.8106 35.8106C36.9217 34.6995 38.4287 34.0753 40 34.0753C41.5713 34.0753 43.0783 34.6995 44.1894 35.8106C45.3005 36.9217 45.9247 38.4287 45.9247 40H71Z" stroke="#d97706" stroke-width="12" mask="url(#path-3-inside-1_1722_809)"/>
</svg>
