<svg width="37" height="37" viewBox="0 0 37 37" fill="none" xmlns="http://www.w3.org/2000/svg">
<g clip-path="url(#clip0_1335_1181)">
<path d="M11.1953 11.6792C10.7172 8.7175 13.4553 3.71721 13.9489 3.63752C14.4425 3.55783 18.6946 7.9361 19.0931 10.4041C19.4915 12.8722 16.9128 18.8597 16.4192 18.9394C15.9256 19.0191 11.6735 14.6408 11.1953 11.6792Z" stroke="white" stroke-width="2" stroke-linecap="round"/>
<path d="M23.8441 25.4241C20.9151 24.7756 17.2781 20.3855 17.3862 19.8973C17.4943 19.4091 23.1327 17.0728 25.5736 17.6133C28.0145 18.1538 32.6278 22.76 32.5197 23.2482C32.4116 23.7364 26.7732 26.0727 23.8441 25.4241Z" stroke="white" stroke-width="2" stroke-linecap="round"/>
<path d="M2.02689 21.272C1.45129 18.3278 4.02286 13.2398 4.51358 13.1439C5.00429 13.048 9.39859 17.2836 9.87825 19.7371C10.3579 22.1907 7.97821 28.26 7.4875 28.3559C6.99679 28.4519 2.60248 24.2163 2.02689 21.272Z" stroke="white" stroke-width="2" stroke-linecap="round"/>
<path d="M14.8015 34.7469C11.8801 34.0646 8.29408 29.6329 8.40779 29.146C8.52151 28.6591 14.1865 26.388 16.621 26.9566C19.0555 27.5252 23.6153 32.1843 23.5016 32.6712C23.3879 33.1581 17.7229 35.4292 14.8015 34.7469Z" stroke="white" stroke-width="2" stroke-linecap="round"/>
<path d="M31.9649 10.3116C29.8852 12.4737 24.2431 13.2906 23.8828 12.944C23.5224 12.5973 24.4661 6.56747 26.1992 4.7657C27.9323 2.96393 34.2676 1.42636 34.628 1.77298C34.9883 2.1196 34.0446 8.14948 31.9649 10.3116Z" stroke="white" stroke-width="2" stroke-linecap="round"/>
<path d="M24 13L2 35" stroke="white" stroke-width="2" stroke-linecap="round"/>
</g>
<defs>
<clipPath id="clip0_1335_1181">
<rect width="37" height="37" fill="white"/>
</clipPath>
</defs>
</svg>
