<svg width="1120" height="747" viewBox="0 0 1120 747" fill="none" xmlns="http://www.w3.org/2000/svg">
<rect x="4.5" y="4.5" width="1111" height="738" rx="19.5" fill="#ECECEC"/>
<rect x="4.5" y="4.5" width="1111" height="738" rx="19.5" stroke="#303030" stroke-width="9"/>
<path d="M135.748 164.584L89.944 105.052C88.976 103.644 87.92 102.236 86.776 100.828C85.72 99.332 84.664 97.836 83.608 96.34H83.476L83.74 142.408C83.74 144.784 83.696 147.072 83.608 149.272C83.608 151.472 83.52 153.276 83.344 154.684C84.84 154.596 86.556 154.508 88.492 154.42C90.428 154.332 91.968 154.288 93.112 154.288V163H64.996V155.74C67.284 155.652 69.044 155.3 70.276 154.684C71.596 153.98 72.564 152.836 73.18 151.252C73.796 149.58 74.104 147.38 74.104 144.652L73.972 89.74C73.972 87.628 74.016 85.604 74.104 83.668C74.192 81.732 74.28 80.148 74.368 78.916C72.96 79.004 71.288 79.092 69.352 79.18C67.416 79.18 65.876 79.224 64.732 79.312V70.6H83.74L127.168 126.7C129.016 129.076 130.6 131.188 131.92 133.036C133.328 134.884 134.56 136.556 135.616 138.052H135.748V90.004C135.748 87.804 135.792 85.692 135.88 83.668C135.968 81.644 136.056 80.06 136.144 78.916C134.736 79.004 133.064 79.092 131.128 79.18C129.192 79.18 127.608 79.224 126.376 79.312V70.6H154.624V77.86C152.248 77.948 150.356 78.388 148.948 79.18C147.628 79.884 146.704 81.16 146.176 83.008C145.648 84.856 145.384 87.496 145.384 90.928L145.252 164.584H135.748ZM194.758 165.112C188.51 165.112 182.834 163.748 177.73 161.02C172.626 158.204 168.578 154.288 165.586 149.272C162.682 144.168 161.23 138.228 161.23 131.452C161.23 124.324 162.726 117.988 165.718 112.444C168.71 106.9 172.714 102.588 177.73 99.508C182.834 96.428 188.422 94.888 194.494 94.888C200.742 94.888 206.374 96.296 211.39 99.112C216.406 101.928 220.366 105.844 223.27 110.86C226.262 115.876 227.758 121.816 227.758 128.68C227.758 135.896 226.306 142.276 223.402 147.82C220.586 153.276 216.67 157.544 211.654 160.624C206.726 163.616 201.094 165.112 194.758 165.112ZM195.418 157.06C199.378 157.06 202.414 155.828 204.526 153.364C206.638 150.9 208.09 147.776 208.882 143.992C209.762 140.12 210.202 136.16 210.202 132.112C210.202 128.68 209.894 125.204 209.278 121.684C208.75 118.164 207.87 114.996 206.638 112.18C205.406 109.276 203.778 106.988 201.754 105.316C199.73 103.556 197.266 102.676 194.362 102.676C190.49 102.764 187.41 104.04 185.122 106.504C182.834 108.968 181.162 112.092 180.106 115.876C179.138 119.66 178.654 123.664 178.654 127.888C178.654 132.64 179.226 137.304 180.37 141.88C181.514 146.368 183.318 150.064 185.782 152.968C188.246 155.784 191.458 157.148 195.418 157.06ZM261.736 163.396L241.54 118.516C240.484 115.964 239.692 113.896 239.164 112.312C238.636 110.728 238.24 109.408 237.976 108.352C237.8 107.296 237.624 106.24 237.448 105.184L232.3 105.448V97H260.944V103.996C258.832 103.996 257.424 104.568 256.72 105.712C256.104 106.768 255.928 108.22 256.192 110.068C256.544 111.828 257.116 113.72 257.908 115.744L265.828 134.752C266.532 136.336 267.236 138.008 267.94 139.768C268.644 141.44 269.304 143.156 269.92 144.916H270.052C270.668 143.244 271.284 141.572 271.9 139.9C272.604 138.14 273.22 136.38 273.748 134.62L281.008 114.292C281.8 112.092 282.548 110.288 283.252 108.88C283.956 107.472 284.616 106.196 285.232 105.052L277.048 105.448V97H300.676V103.996C298.652 104.172 296.892 105.14 295.396 106.9C293.9 108.572 292.58 110.64 291.436 113.104C290.292 115.48 289.236 117.944 288.268 120.496L271.24 163.396H261.736ZM337.844 165.112C331.596 165.112 325.92 163.748 320.816 161.02C315.712 158.204 311.664 154.288 308.672 149.272C305.768 144.168 304.316 138.228 304.316 131.452C304.316 124.324 305.812 117.988 308.804 112.444C311.796 106.9 315.8 102.588 320.816 99.508C325.92 96.428 331.508 94.888 337.58 94.888C343.828 94.888 349.46 96.296 354.476 99.112C359.492 101.928 363.452 105.844 366.356 110.86C369.348 115.876 370.844 121.816 370.844 128.68C370.844 135.896 369.392 142.276 366.488 147.82C363.672 153.276 359.756 157.544 354.74 160.624C349.812 163.616 344.18 165.112 337.844 165.112ZM338.504 157.06C342.464 157.06 345.5 155.828 347.612 153.364C349.724 150.9 351.176 147.776 351.968 143.992C352.848 140.12 353.288 136.16 353.288 132.112C353.288 128.68 352.98 125.204 352.364 121.684C351.836 118.164 350.956 114.996 349.724 112.18C348.492 109.276 346.864 106.988 344.84 105.316C342.816 103.556 340.352 102.676 337.448 102.676C333.576 102.764 330.496 104.04 328.208 106.504C325.92 108.968 324.248 112.092 323.192 115.876C322.224 119.66 321.74 123.664 321.74 127.888C321.74 132.64 322.312 137.304 323.456 141.88C324.6 146.368 326.404 150.064 328.868 152.968C331.332 155.784 334.544 157.148 338.504 157.06ZM410.215 165.112C406.167 165.112 402.383 164.584 398.863 163.528C395.343 162.472 392.527 161.196 390.415 159.7L390.811 163.924H382.231L381.571 141.22H388.699C388.963 144.212 390.019 146.94 391.867 149.404C393.715 151.78 396.091 153.672 398.995 155.08C401.987 156.4 405.287 157.06 408.895 157.06C410.655 157.06 412.327 156.796 413.911 156.268C415.583 155.74 416.947 154.904 418.003 153.76C419.147 152.528 419.719 150.988 419.719 149.14C419.719 147.204 419.059 145.62 417.739 144.388C416.507 143.156 414.747 142.012 412.459 140.956C410.171 139.9 407.487 138.8 404.407 137.656C401.679 136.6 398.951 135.5 396.223 134.356C393.495 133.212 390.987 131.848 388.699 130.264C386.411 128.592 384.563 126.568 383.155 124.192C381.747 121.816 381.043 118.912 381.043 115.48C381.043 113.104 381.483 110.728 382.363 108.352C383.243 105.976 384.651 103.776 386.587 101.752C388.523 99.64 390.987 97.968 393.979 96.736C397.059 95.504 400.799 94.888 405.199 94.888C407.575 94.888 410.259 95.284 413.251 96.076C416.243 96.78 418.883 98.012 421.171 99.772L421.039 95.548H429.619V118.78H422.491C422.051 115.7 421.083 112.972 419.587 110.596C418.091 108.132 416.111 106.196 413.647 104.788C411.183 103.38 408.235 102.676 404.803 102.676C401.987 102.676 399.611 103.38 397.675 104.788C395.739 106.108 394.771 108.088 394.771 110.728C394.771 112.928 395.519 114.732 397.015 116.14C398.511 117.548 400.535 118.736 403.087 119.704C405.639 120.672 408.411 121.728 411.403 122.872C415.539 124.28 419.279 125.952 422.623 127.888C426.055 129.824 428.783 132.156 430.807 134.884C432.831 137.612 433.843 141 433.843 145.048C433.843 149.624 432.699 153.408 430.411 156.4C428.123 159.304 425.175 161.504 421.567 163C417.959 164.408 414.175 165.112 410.215 165.112ZM477.302 196.66V189.664C479.854 189.664 481.658 189.092 482.714 187.948C483.858 186.892 484.562 185.352 484.826 183.328C485.09 181.304 485.222 179.016 485.222 176.464L485.354 117.988C485.354 116.404 485.354 114.732 485.354 112.972C485.442 111.212 485.618 109.408 485.882 107.56C484.386 107.648 482.714 107.736 480.866 107.824C479.106 107.912 477.654 108 476.51 108.088V99.508C480.558 99.508 483.814 99.332 486.278 98.98C488.83 98.54 490.766 98.012 492.086 97.396C493.494 96.78 494.506 96.208 495.122 95.68H500.798C500.974 96.56 501.106 97.616 501.194 98.848C501.282 100.08 501.37 101.224 501.458 102.28C504.362 99.728 507.442 97.88 510.698 96.736C513.954 95.504 517.078 94.888 520.07 94.888C525.35 94.888 530.058 96.252 534.194 98.98C538.33 101.62 541.586 105.448 543.962 110.464C546.338 115.392 547.526 121.244 547.526 128.02C547.526 135.236 546.074 141.66 543.17 147.292C540.354 152.836 536.482 157.192 531.554 160.36C526.626 163.528 520.95 165.112 514.526 165.112C511.886 165.112 509.51 164.804 507.398 164.188C505.286 163.66 503.306 162.956 501.458 162.076V177.784C501.458 179.192 501.414 180.864 501.326 182.8C501.326 184.824 501.194 186.76 500.93 188.608C502.338 188.432 503.834 188.3 505.418 188.212C507.002 188.212 508.322 188.212 509.378 188.212V196.66H477.302ZM513.074 156.796C517.122 156.708 520.378 155.476 522.842 153.1C525.394 150.636 527.242 147.38 528.386 143.332C529.53 139.284 530.102 134.884 530.102 130.132C530.102 125.82 529.53 121.728 528.386 117.856C527.33 113.984 525.614 110.86 523.238 108.484C520.862 106.108 517.694 104.92 513.734 104.92C511.27 105.008 508.938 105.624 506.738 106.768C504.626 107.912 502.866 109.408 501.458 111.256C501.458 113.192 501.458 115.172 501.458 117.196C501.458 119.22 501.458 121.376 501.458 123.664C501.458 125.952 501.458 128.548 501.458 131.452C501.458 134.268 501.458 137.48 501.458 141.088C501.458 144.696 501.458 148.832 501.458 153.496C502.866 154.464 504.582 155.256 506.606 155.872C508.63 156.488 510.786 156.796 513.074 156.796ZM555.536 156.004C558.088 156.004 559.892 155.476 560.948 154.42C562.092 153.276 562.752 151.692 562.928 149.668C563.192 147.644 563.324 145.356 563.324 142.804V85.78C563.324 84.284 563.368 82.656 563.456 80.896C563.544 79.048 563.676 77.156 563.852 75.22C562.356 75.308 560.728 75.396 558.968 75.484C557.208 75.572 555.712 75.66 554.48 75.748V67.168C558.528 67.168 561.828 66.992 564.38 66.64C567.02 66.2 569.044 65.672 570.452 65.056C571.948 64.44 573.004 63.868 573.62 63.34H579.56L579.692 144.124C579.692 145.532 579.648 147.248 579.56 149.272C579.472 151.208 579.296 153.1 579.032 154.948C580.528 154.772 582.068 154.684 583.652 154.684C585.236 154.596 586.556 154.552 587.612 154.552V163H555.536V156.004ZM634.713 163C634.449 161.68 634.273 160.58 634.185 159.7C634.185 158.732 634.141 157.632 634.053 156.4C631.061 159.392 627.849 161.592 624.417 163C621.073 164.408 617.597 165.112 613.989 165.112C608.005 165.112 603.385 163.484 600.129 160.228C596.961 156.972 595.377 152.968 595.377 148.216C595.377 143.992 596.521 140.428 598.809 137.524C601.097 134.532 604.089 132.112 607.785 130.264C611.481 128.328 615.573 126.876 620.061 125.908C624.549 124.852 628.993 124.28 633.393 124.192V116.932C633.393 114.38 633.085 112.048 632.469 109.936C631.941 107.736 630.929 106.02 629.433 104.788C627.937 103.468 625.737 102.808 622.833 102.808C620.897 102.896 618.917 103.336 616.893 104.128C614.957 104.832 613.417 105.976 612.273 107.56C612.977 108.352 613.417 109.232 613.593 110.2C613.769 111.08 613.857 111.872 613.857 112.576C613.857 114.16 613.241 115.832 612.009 117.592C610.777 119.264 608.797 120.056 606.069 119.968C603.693 119.88 601.845 119.044 600.525 117.46C599.293 115.876 598.677 113.984 598.677 111.784C598.677 108.44 599.865 105.536 602.241 103.072C604.705 100.52 608.005 98.54 612.141 97.132C616.277 95.636 620.897 94.888 626.001 94.888C633.569 94.888 639.377 96.868 643.425 100.828C647.473 104.788 649.453 111.124 649.365 119.836C649.365 122.916 649.365 125.732 649.365 128.284C649.365 130.748 649.321 133.256 649.233 135.808C649.233 138.272 649.233 141.044 649.233 144.124C649.233 145.444 649.189 147.116 649.101 149.14C649.013 151.076 648.881 153.012 648.705 154.948C650.289 154.772 651.873 154.684 653.457 154.684C655.129 154.596 656.493 154.508 657.549 154.42V163H634.713ZM633.261 131.98C630.621 132.156 628.025 132.596 625.473 133.3C622.921 133.916 620.633 134.796 618.609 135.94C616.585 137.084 614.957 138.536 613.725 140.296C612.581 141.968 612.053 143.904 612.141 146.104C612.229 148.832 613.109 150.856 614.781 152.176C616.453 153.408 618.389 154.024 620.589 154.024C623.141 154.024 625.429 153.496 627.453 152.44C629.565 151.384 631.501 149.976 633.261 148.216C633.261 147.336 633.261 146.412 633.261 145.444C633.261 144.476 633.261 143.508 633.261 142.54C633.261 141.308 633.261 139.768 633.261 137.92C633.261 136.072 633.261 134.092 633.261 131.98ZM665.665 163V156.004C668.217 156.004 670.021 155.476 671.077 154.42C672.133 153.276 672.793 151.692 673.057 149.668C673.321 147.644 673.453 145.356 673.453 142.804V117.988C673.453 116.404 673.497 114.732 673.585 112.972C673.673 111.212 673.805 109.408 673.981 107.56C672.573 107.648 670.945 107.736 669.097 107.824C667.337 107.912 665.885 108 664.741 108.088V99.508C668.701 99.508 671.957 99.332 674.509 98.98C677.061 98.54 679.041 98.012 680.449 97.396C681.857 96.78 682.869 96.208 683.485 95.68H689.029C689.205 96.648 689.293 97.44 689.293 98.056C689.293 98.672 689.337 99.332 689.425 100.036C689.513 100.652 689.645 101.576 689.821 102.808C691.581 101.312 693.605 99.992 695.893 98.848C698.269 97.616 700.645 96.648 703.021 95.944C705.397 95.24 707.597 94.888 709.621 94.888C717.541 94.888 723.217 97.22 726.649 101.884C730.081 106.548 731.797 113.984 731.797 124.192V144.124C731.797 145.532 731.753 147.248 731.665 149.272C731.665 151.208 731.533 153.1 731.269 154.948C732.765 154.772 734.305 154.684 735.889 154.684C737.473 154.596 738.793 154.552 739.849 154.552V163H707.773V156.004C710.325 156.004 712.129 155.476 713.185 154.42C714.329 153.276 715.033 151.692 715.297 149.668C715.561 147.644 715.693 145.356 715.693 142.804L715.561 124.06C715.561 117.724 714.593 113.016 712.657 109.936C710.809 106.768 707.729 105.184 703.417 105.184C700.865 105.272 698.357 105.888 695.893 107.032C693.429 108.176 691.361 109.628 689.689 111.388C689.777 112.444 689.821 113.544 689.821 114.688C689.821 115.832 689.821 116.976 689.821 118.12L689.689 144.124C689.689 145.532 689.645 147.248 689.557 149.272C689.557 151.208 689.425 153.1 689.161 154.948C690.569 154.772 692.065 154.684 693.649 154.684C695.321 154.596 696.685 154.552 697.741 154.552V163H665.665ZM781.024 165.112C774.776 165.112 769.1 163.748 763.996 161.02C758.892 158.204 754.844 154.288 751.852 149.272C748.948 144.168 747.496 138.228 747.496 131.452C747.496 124.324 748.992 117.988 751.984 112.444C754.976 106.9 758.98 102.588 763.996 99.508C769.1 96.428 774.688 94.888 780.76 94.888C787.008 94.888 792.64 96.296 797.656 99.112C802.672 101.928 806.632 105.844 809.536 110.86C812.528 115.876 814.024 121.816 814.024 128.68C814.024 135.896 812.572 142.276 809.668 147.82C806.852 153.276 802.936 157.544 797.92 160.624C792.992 163.616 787.36 165.112 781.024 165.112ZM781.684 157.06C785.644 157.06 788.68 155.828 790.792 153.364C792.904 150.9 794.356 147.776 795.148 143.992C796.028 140.12 796.468 136.16 796.468 132.112C796.468 128.68 796.16 125.204 795.544 121.684C795.016 118.164 794.136 114.996 792.904 112.18C791.672 109.276 790.044 106.988 788.02 105.316C785.996 103.556 783.532 102.676 780.628 102.676C776.756 102.764 773.676 104.04 771.388 106.504C769.1 108.968 767.428 112.092 766.372 115.876C765.404 119.66 764.92 123.664 764.92 127.888C764.92 132.64 765.492 137.304 766.636 141.88C767.78 146.368 769.584 150.064 772.048 152.968C774.512 155.784 777.724 157.148 781.684 157.06ZM853.395 165.112C849.347 165.112 845.563 164.584 842.043 163.528C838.523 162.472 835.707 161.196 833.595 159.7L833.991 163.924H825.411L824.751 141.22H831.879C832.143 144.212 833.199 146.94 835.047 149.404C836.895 151.78 839.271 153.672 842.175 155.08C845.167 156.4 848.467 157.06 852.075 157.06C853.835 157.06 855.507 156.796 857.091 156.268C858.763 155.74 860.127 154.904 861.183 153.76C862.327 152.528 862.899 150.988 862.899 149.14C862.899 147.204 862.239 145.62 860.919 144.388C859.687 143.156 857.927 142.012 855.639 140.956C853.351 139.9 850.667 138.8 847.587 137.656C844.859 136.6 842.131 135.5 839.403 134.356C836.675 133.212 834.167 131.848 831.879 130.264C829.591 128.592 827.743 126.568 826.335 124.192C824.927 121.816 824.223 118.912 824.223 115.48C824.223 113.104 824.663 110.728 825.543 108.352C826.423 105.976 827.831 103.776 829.767 101.752C831.703 99.64 834.167 97.968 837.159 96.736C840.239 95.504 843.979 94.888 848.379 94.888C850.755 94.888 853.439 95.284 856.431 96.076C859.423 96.78 862.063 98.012 864.351 99.772L864.219 95.548H872.799V118.78H865.671C865.231 115.7 864.263 112.972 862.767 110.596C861.271 108.132 859.291 106.196 856.827 104.788C854.363 103.38 851.415 102.676 847.983 102.676C845.167 102.676 842.791 103.38 840.855 104.788C838.919 106.108 837.951 108.088 837.951 110.728C837.951 112.928 838.699 114.732 840.195 116.14C841.691 117.548 843.715 118.736 846.267 119.704C848.819 120.672 851.591 121.728 854.583 122.872C858.719 124.28 862.459 125.952 865.803 127.888C869.235 129.824 871.963 132.156 873.987 134.884C876.011 137.612 877.023 141 877.023 145.048C877.023 149.624 875.879 153.408 873.591 156.4C871.303 159.304 868.355 161.504 864.747 163C861.139 164.408 857.355 165.112 853.395 165.112ZM95.092 300.112C89.196 300.112 83.74 298.792 78.724 296.152C73.796 293.512 69.836 289.684 66.844 284.668C63.94 279.564 62.488 273.448 62.488 266.32C62.488 261.48 63.324 256.904 64.996 252.592C66.668 248.192 69 244.32 71.992 240.976C75.072 237.544 78.724 234.86 82.948 232.924C87.172 230.9 91.836 229.888 96.94 229.888C102.308 229.888 106.84 230.724 110.536 232.396C114.232 233.98 117.048 236.136 118.984 238.864C120.92 241.504 121.888 244.32 121.888 247.312C121.888 249.688 121.184 251.756 119.776 253.516C118.456 255.276 116.52 256.2 113.968 256.288C110.976 256.376 108.864 255.54 107.632 253.78C106.488 251.932 105.916 250.216 105.916 248.632C105.916 247.752 106.048 246.828 106.312 245.86C106.576 244.804 107.016 243.836 107.632 242.956C107.016 241.372 106.004 240.228 104.596 239.524C103.188 238.732 101.736 238.204 100.24 237.94C98.744 237.676 97.556 237.588 96.676 237.676C91.836 237.852 87.832 240.052 84.664 244.276C81.496 248.5 79.912 254.66 79.912 262.756C79.912 267.596 80.572 272.084 81.892 276.22C83.3 280.268 85.412 283.568 88.228 286.12C91.044 288.584 94.652 289.86 99.052 289.948C102.924 290.036 106.664 289.112 110.272 287.176C113.88 285.152 116.828 282.556 119.116 279.388L124.396 284.272C121.492 288.408 118.368 291.62 115.024 293.908C111.68 296.196 108.292 297.78 104.86 298.66C101.516 299.628 98.26 300.112 95.092 300.112ZM164.852 300.112C158.604 300.112 152.928 298.748 147.824 296.02C142.72 293.204 138.672 289.288 135.68 284.272C132.776 279.168 131.324 273.228 131.324 266.452C131.324 259.324 132.82 252.988 135.812 247.444C138.804 241.9 142.808 237.588 147.824 234.508C152.928 231.428 158.516 229.888 164.588 229.888C170.836 229.888 176.468 231.296 181.484 234.112C186.5 236.928 190.46 240.844 193.364 245.86C196.356 250.876 197.852 256.816 197.852 263.68C197.852 270.896 196.4 277.276 193.496 282.82C190.68 288.276 186.764 292.544 181.748 295.624C176.82 298.616 171.188 300.112 164.852 300.112ZM165.512 292.06C169.472 292.06 172.508 290.828 174.62 288.364C176.732 285.9 178.184 282.776 178.976 278.992C179.856 275.12 180.296 271.16 180.296 267.112C180.296 263.68 179.988 260.204 179.372 256.684C178.844 253.164 177.964 249.996 176.732 247.18C175.5 244.276 173.872 241.988 171.848 240.316C169.824 238.556 167.36 237.676 164.456 237.676C160.584 237.764 157.504 239.04 155.216 241.504C152.928 243.968 151.256 247.092 150.2 250.876C149.232 254.66 148.748 258.664 148.748 262.888C148.748 267.64 149.32 272.304 150.464 276.88C151.608 281.368 153.412 285.064 155.876 287.968C158.34 290.784 161.552 292.148 165.512 292.06ZM207.919 298V291.004C210.471 291.004 212.275 290.476 213.331 289.42C214.387 288.276 215.047 286.692 215.311 284.668C215.575 282.644 215.707 280.356 215.707 277.804V252.988C215.707 251.404 215.751 249.732 215.839 247.972C215.927 246.212 216.059 244.408 216.235 242.56C214.739 242.648 213.111 242.736 211.351 242.824C209.591 242.912 208.139 243 206.995 243.088V234.508C210.955 234.508 214.211 234.332 216.763 233.98C219.315 233.54 221.295 233.012 222.703 232.396C224.111 231.78 225.123 231.208 225.739 230.68H231.283C231.459 231.56 231.547 232.66 231.547 233.98C231.635 235.212 231.723 236.356 231.811 237.412C234.715 235.124 237.883 233.32 241.315 232C244.747 230.592 248.091 229.888 251.347 229.888C255.483 229.888 258.915 230.636 261.643 232.132C264.459 233.628 266.659 235.784 268.243 238.6C271.323 236.048 274.799 233.98 278.671 232.396C282.543 230.724 286.283 229.888 289.891 229.888C297.195 229.888 302.651 232.044 306.259 236.356C309.955 240.58 311.759 247.796 311.671 258.004V279.124C311.671 280.532 311.627 282.248 311.539 284.272C311.451 286.208 311.319 288.1 311.143 289.948C312.551 289.772 314.047 289.684 315.631 289.684C317.215 289.596 318.535 289.552 319.591 289.552V298H288.307V291.004C290.595 291.004 292.223 290.476 293.191 289.42C294.159 288.276 294.731 286.692 294.907 284.668C295.171 282.644 295.303 280.356 295.303 277.804V258.136C295.303 251.8 294.291 247.268 292.267 244.54C290.243 241.812 287.383 240.448 283.687 240.448C281.223 240.36 278.847 240.844 276.559 241.9C274.359 242.868 272.423 244.056 270.751 245.464C271.191 247.136 271.499 248.94 271.675 250.876C271.851 252.812 271.939 254.88 271.939 257.08C271.939 260.776 271.939 264.472 271.939 268.168C271.939 271.776 271.895 275.428 271.807 279.124C271.807 280.532 271.763 282.248 271.675 284.272C271.675 286.208 271.543 288.1 271.279 289.948C272.687 289.772 274.183 289.684 275.767 289.684C277.351 289.596 278.715 289.552 279.859 289.552V298H248.179V291.004C250.555 291.004 252.227 290.476 253.195 289.42C254.251 288.276 254.911 286.692 255.175 284.668C255.439 282.644 255.571 280.356 255.571 277.804V257.872C255.571 251.536 254.603 247.048 252.667 244.408C250.819 241.68 248.047 240.272 244.351 240.184C241.975 240.184 239.687 240.712 237.487 241.768C235.375 242.824 233.527 244.1 231.943 245.596C231.943 246.74 231.943 247.884 231.943 249.028C231.943 250.084 231.943 251.184 231.943 252.328V279.124C231.943 280.532 231.899 282.248 231.811 284.272C231.811 286.208 231.679 288.1 231.415 289.948C232.823 289.772 234.231 289.684 235.639 289.684C237.135 289.596 238.411 289.552 239.467 289.552V298H207.919ZM389.264 300.112C383.984 300.112 379.276 298.748 375.14 296.02C371.004 293.292 367.748 289.42 365.372 284.404C363.084 279.388 361.94 273.492 361.94 266.716C361.94 259.588 363.348 253.252 366.164 247.708C368.98 242.164 372.852 237.808 377.78 234.64C382.796 231.472 388.56 229.888 395.072 229.888C397.624 229.888 400 230.196 402.2 230.812C404.488 231.34 406.468 231.956 408.14 232.66V220.912C408.14 219.592 408.14 217.964 408.14 216.028C408.228 214.092 408.36 212.156 408.536 210.22C407.128 210.308 405.5 210.396 403.652 210.484C401.892 210.572 400.396 210.66 399.164 210.748V202.168C403.212 202.168 406.512 201.992 409.064 201.64C411.616 201.2 413.596 200.672 415.004 200.056C416.5 199.44 417.556 198.868 418.172 198.34H424.244V279.124C424.244 280.444 424.2 282.116 424.112 284.14C424.024 286.076 423.892 288.012 423.716 289.948C425.212 289.772 426.752 289.684 428.336 289.684C430.008 289.596 431.416 289.508 432.56 289.42V298H409.592C409.416 296.944 409.24 295.888 409.064 294.832C408.976 293.688 408.844 292.632 408.668 291.664C405.94 294.568 402.948 296.68 399.692 298C396.436 299.408 392.96 300.112 389.264 300.112ZM395.468 289.948C397.932 289.948 400.308 289.288 402.596 287.968C404.884 286.56 406.732 284.844 408.14 282.82C408.052 281.588 408.008 280.356 408.008 279.124C408.008 277.804 408.008 276.484 408.008 275.164L408.14 241.372C406.82 240.316 405.148 239.524 403.124 238.996C401.1 238.38 399.032 238.072 396.92 238.072C392.784 238.16 389.396 239.48 386.756 242.032C384.204 244.496 382.312 247.752 381.08 251.8C379.936 255.848 379.408 260.248 379.496 265C379.496 269.312 380.068 273.36 381.212 277.144C382.356 280.928 384.072 284.008 386.36 286.384C388.736 288.76 391.772 289.948 395.468 289.948ZM473.174 300.112C466.838 300.112 461.206 298.704 456.278 295.888C451.35 292.984 447.522 288.936 444.794 283.744C442.066 278.464 440.702 272.26 440.702 265.132C440.702 258.972 442.066 253.208 444.794 247.84C447.522 242.472 451.35 238.16 456.278 234.904C461.294 231.56 467.102 229.888 473.702 229.888C477.398 229.888 480.962 230.416 484.394 231.472C487.826 232.528 490.906 234.288 493.634 236.752C496.362 239.216 498.518 242.472 500.102 246.52C501.774 250.568 502.566 255.496 502.478 261.304L458.126 262.096C458.126 267.552 458.742 272.392 459.974 276.616C461.294 280.752 463.406 284.052 466.31 286.516C469.214 288.892 473.042 290.08 477.794 290.08C479.906 290.08 482.15 289.728 484.526 289.024C486.99 288.232 489.41 287.088 491.786 285.592C494.162 284.008 496.274 282.072 498.122 279.784L503.138 284.404C500.234 288.628 497.022 291.884 493.502 294.172C489.982 296.46 486.462 298 482.942 298.792C479.422 299.672 476.166 300.112 473.174 300.112ZM458.786 254.176H486.242C486.154 250.656 485.626 247.708 484.658 245.332C483.778 242.868 482.458 241.02 480.698 239.788C478.938 238.468 476.782 237.808 474.23 237.808C469.918 237.808 466.442 239.26 463.802 242.164C461.25 244.98 459.578 248.984 458.786 254.176ZM542.086 300.112C538.038 300.112 534.254 299.584 530.734 298.528C527.214 297.472 524.398 296.196 522.286 294.7L522.682 298.924H514.102L513.442 276.22H520.57C520.834 279.212 521.89 281.94 523.738 284.404C525.586 286.78 527.962 288.672 530.866 290.08C533.858 291.4 537.158 292.06 540.766 292.06C542.526 292.06 544.198 291.796 545.782 291.268C547.454 290.74 548.818 289.904 549.874 288.76C551.018 287.528 551.59 285.988 551.59 284.14C551.59 282.204 550.93 280.62 549.61 279.388C548.378 278.156 546.618 277.012 544.33 275.956C542.042 274.9 539.358 273.8 536.278 272.656C533.55 271.6 530.822 270.5 528.094 269.356C525.366 268.212 522.858 266.848 520.57 265.264C518.282 263.592 516.434 261.568 515.026 259.192C513.618 256.816 512.914 253.912 512.914 250.48C512.914 248.104 513.354 245.728 514.234 243.352C515.114 240.976 516.522 238.776 518.458 236.752C520.394 234.64 522.858 232.968 525.85 231.736C528.93 230.504 532.67 229.888 537.07 229.888C539.446 229.888 542.13 230.284 545.122 231.076C548.114 231.78 550.754 233.012 553.042 234.772L552.91 230.548H561.49V253.78H554.362C553.922 250.7 552.954 247.972 551.458 245.596C549.962 243.132 547.982 241.196 545.518 239.788C543.054 238.38 540.106 237.676 536.674 237.676C533.858 237.676 531.482 238.38 529.546 239.788C527.61 241.108 526.642 243.088 526.642 245.728C526.642 247.928 527.39 249.732 528.886 251.14C530.382 252.548 532.406 253.736 534.958 254.704C537.51 255.672 540.282 256.728 543.274 257.872C547.41 259.28 551.15 260.952 554.494 262.888C557.926 264.824 560.654 267.156 562.678 269.884C564.702 272.612 565.714 276 565.714 280.048C565.714 284.624 564.57 288.408 562.282 291.4C559.994 294.304 557.046 296.504 553.438 298C549.83 299.408 546.046 300.112 542.086 300.112ZM607.365 300.112C601.469 300.112 596.013 298.792 590.997 296.152C586.069 293.512 582.109 289.684 579.117 284.668C576.213 279.564 574.761 273.448 574.761 266.32C574.761 261.48 575.597 256.904 577.269 252.592C578.941 248.192 581.273 244.32 584.265 240.976C587.345 237.544 590.997 234.86 595.221 232.924C599.445 230.9 604.109 229.888 609.213 229.888C614.581 229.888 619.113 230.724 622.809 232.396C626.505 233.98 629.321 236.136 631.257 238.864C633.193 241.504 634.161 244.32 634.161 247.312C634.161 249.688 633.457 251.756 632.049 253.516C630.729 255.276 628.793 256.2 626.241 256.288C623.249 256.376 621.137 255.54 619.905 253.78C618.761 251.932 618.189 250.216 618.189 248.632C618.189 247.752 618.321 246.828 618.585 245.86C618.849 244.804 619.289 243.836 619.905 242.956C619.289 241.372 618.277 240.228 616.869 239.524C615.461 238.732 614.009 238.204 612.513 237.94C611.017 237.676 609.829 237.588 608.949 237.676C604.109 237.852 600.105 240.052 596.937 244.276C593.769 248.5 592.185 254.66 592.185 262.756C592.185 267.596 592.845 272.084 594.165 276.22C595.573 280.268 597.685 283.568 600.501 286.12C603.317 288.584 606.925 289.86 611.325 289.948C615.197 290.036 618.937 289.112 622.545 287.176C626.153 285.152 629.101 282.556 631.389 279.388L636.669 284.272C633.765 288.408 630.641 291.62 627.297 293.908C623.953 296.196 620.565 297.78 617.133 298.66C613.789 299.628 610.533 300.112 607.365 300.112ZM677.125 300.112C670.877 300.112 665.201 298.748 660.097 296.02C654.993 293.204 650.945 289.288 647.953 284.272C645.049 279.168 643.597 273.228 643.597 266.452C643.597 259.324 645.093 252.988 648.085 247.444C651.077 241.9 655.081 237.588 660.097 234.508C665.201 231.428 670.789 229.888 676.861 229.888C683.109 229.888 688.741 231.296 693.757 234.112C698.773 236.928 702.733 240.844 705.637 245.86C708.629 250.876 710.125 256.816 710.125 263.68C710.125 270.896 708.673 277.276 705.769 282.82C702.953 288.276 699.037 292.544 694.021 295.624C689.093 298.616 683.461 300.112 677.125 300.112ZM677.785 292.06C681.745 292.06 684.781 290.828 686.893 288.364C689.005 285.9 690.457 282.776 691.249 278.992C692.129 275.12 692.569 271.16 692.569 267.112C692.569 263.68 692.261 260.204 691.645 256.684C691.117 253.164 690.237 249.996 689.005 247.18C687.773 244.276 686.145 241.988 684.121 240.316C682.097 238.556 679.633 237.676 676.729 237.676C672.857 237.764 669.777 239.04 667.489 241.504C665.201 243.968 663.529 247.092 662.473 250.876C661.505 254.66 661.021 258.664 661.021 262.888C661.021 267.64 661.593 272.304 662.737 276.88C663.881 281.368 665.685 285.064 668.149 287.968C670.613 290.784 673.825 292.148 677.785 292.06ZM720.192 298V291.004C722.744 291.004 724.548 290.476 725.604 289.42C726.66 288.276 727.32 286.692 727.584 284.668C727.848 282.644 727.98 280.356 727.98 277.804V252.988C727.98 251.404 728.024 249.732 728.112 247.972C728.2 246.212 728.332 244.408 728.508 242.56C727.1 242.648 725.472 242.736 723.624 242.824C721.864 242.912 720.412 243 719.268 243.088V234.508C723.228 234.508 726.484 234.332 729.036 233.98C731.588 233.54 733.568 233.012 734.976 232.396C736.384 231.78 737.396 231.208 738.012 230.68H743.556C743.732 231.648 743.82 232.44 743.82 233.056C743.82 233.672 743.864 234.332 743.952 235.036C744.04 235.652 744.172 236.576 744.348 237.808C746.108 236.312 748.132 234.992 750.42 233.848C752.796 232.616 755.172 231.648 757.548 230.944C759.924 230.24 762.124 229.888 764.148 229.888C772.068 229.888 777.744 232.22 781.176 236.884C784.608 241.548 786.324 248.984 786.324 259.192V279.124C786.324 280.532 786.28 282.248 786.192 284.272C786.192 286.208 786.06 288.1 785.796 289.948C787.292 289.772 788.832 289.684 790.416 289.684C792 289.596 793.32 289.552 794.376 289.552V298H762.3V291.004C764.852 291.004 766.656 290.476 767.712 289.42C768.856 288.276 769.56 286.692 769.824 284.668C770.088 282.644 770.22 280.356 770.22 277.804L770.088 259.06C770.088 252.724 769.12 248.016 767.184 244.936C765.336 241.768 762.256 240.184 757.944 240.184C755.392 240.272 752.884 240.888 750.42 242.032C747.956 243.176 745.888 244.628 744.216 246.388C744.304 247.444 744.348 248.544 744.348 249.688C744.348 250.832 744.348 251.976 744.348 253.12L744.216 279.124C744.216 280.532 744.172 282.248 744.084 284.272C744.084 286.208 743.952 288.1 743.688 289.948C745.096 289.772 746.592 289.684 748.176 289.684C749.848 289.596 751.212 289.552 752.268 289.552V298H720.192ZM827.917 300.112C825.453 300.112 823.033 299.804 820.657 299.188C818.369 298.572 816.257 297.428 814.321 295.756C812.473 294.084 810.977 291.62 809.833 288.364C808.689 285.02 808.117 280.62 808.117 275.164L808.381 241.108L799.009 241.24V232C801.649 231.912 804.201 231.032 806.665 229.36C809.129 227.6 811.285 225.312 813.133 222.496C814.981 219.68 816.213 216.688 816.829 213.52H824.881L824.749 232H843.361V240.448L824.749 240.844L824.617 274.768C824.617 277.408 824.837 279.872 825.277 282.16C825.805 284.36 826.685 286.12 827.917 287.44C829.237 288.76 830.997 289.42 833.197 289.42C834.869 289.42 836.761 288.892 838.873 287.836C841.073 286.78 843.273 284.668 845.473 281.5L850.885 286.384C848.685 289.728 846.397 292.324 844.021 294.172C841.733 296.02 839.489 297.384 837.289 298.264C835.177 299.144 833.285 299.672 831.613 299.848C829.941 300.024 828.709 300.112 827.917 300.112ZM888.016 300.112C881.768 300.112 876.092 298.748 870.988 296.02C865.884 293.204 861.836 289.288 858.844 284.272C855.94 279.168 854.488 273.228 854.488 266.452C854.488 259.324 855.984 252.988 858.976 247.444C861.968 241.9 865.972 237.588 870.988 234.508C876.092 231.428 881.68 229.888 887.752 229.888C894 229.888 899.632 231.296 904.648 234.112C909.664 236.928 913.624 240.844 916.528 245.86C919.52 250.876 921.016 256.816 921.016 263.68C921.016 270.896 919.564 277.276 916.66 282.82C913.844 288.276 909.928 292.544 904.912 295.624C899.984 298.616 894.352 300.112 888.016 300.112ZM888.676 292.06C892.636 292.06 895.672 290.828 897.784 288.364C899.896 285.9 901.348 282.776 902.14 278.992C903.02 275.12 903.46 271.16 903.46 267.112C903.46 263.68 903.152 260.204 902.536 256.684C902.008 253.164 901.128 249.996 899.896 247.18C898.664 244.276 897.036 241.988 895.012 240.316C892.988 238.556 890.524 237.676 887.62 237.676C883.748 237.764 880.668 239.04 878.38 241.504C876.092 243.968 874.42 247.092 873.364 250.876C872.396 254.66 871.912 258.664 871.912 262.888C871.912 267.64 872.484 272.304 873.628 276.88C874.772 281.368 876.576 285.064 879.04 287.968C881.504 290.784 884.716 292.148 888.676 292.06ZM89.944 435.112C84.664 435.112 79.956 433.748 75.82 431.02C71.684 428.292 68.428 424.42 66.052 419.404C63.764 414.388 62.62 408.492 62.62 401.716C62.62 394.588 64.028 388.252 66.844 382.708C69.66 377.164 73.532 372.808 78.46 369.64C83.476 366.472 89.24 364.888 95.752 364.888C98.304 364.888 100.68 365.196 102.88 365.812C105.168 366.34 107.148 366.956 108.82 367.66V355.912C108.82 354.592 108.82 352.964 108.82 351.028C108.908 349.092 109.04 347.156 109.216 345.22C107.808 345.308 106.18 345.396 104.332 345.484C102.572 345.572 101.076 345.66 99.844 345.748V337.168C103.892 337.168 107.192 336.992 109.744 336.64C112.296 336.2 114.276 335.672 115.684 335.056C117.18 334.44 118.236 333.868 118.852 333.34H124.924V414.124C124.924 415.444 124.88 417.116 124.792 419.14C124.704 421.076 124.572 423.012 124.396 424.948C125.892 424.772 127.432 424.684 129.016 424.684C130.688 424.596 132.096 424.508 133.24 424.42V433H110.272C110.096 431.944 109.92 430.888 109.744 429.832C109.656 428.688 109.524 427.632 109.348 426.664C106.62 429.568 103.628 431.68 100.372 433C97.116 434.408 93.64 435.112 89.944 435.112ZM96.148 424.948C98.612 424.948 100.988 424.288 103.276 422.968C105.564 421.56 107.412 419.844 108.82 417.82C108.732 416.588 108.688 415.356 108.688 414.124C108.688 412.804 108.688 411.484 108.688 410.164L108.82 376.372C107.5 375.316 105.828 374.524 103.804 373.996C101.78 373.38 99.712 373.072 97.6 373.072C93.464 373.16 90.076 374.48 87.436 377.032C84.884 379.496 82.992 382.752 81.76 386.8C80.616 390.848 80.088 395.248 80.176 400C80.176 404.312 80.748 408.36 81.892 412.144C83.036 415.928 84.752 419.008 87.04 421.384C89.416 423.76 92.452 424.948 96.148 424.948ZM173.854 435.112C167.518 435.112 161.886 433.704 156.958 430.888C152.03 427.984 148.202 423.936 145.474 418.744C142.746 413.464 141.382 407.26 141.382 400.132C141.382 393.972 142.746 388.208 145.474 382.84C148.202 377.472 152.03 373.16 156.958 369.904C161.974 366.56 167.782 364.888 174.382 364.888C178.078 364.888 181.642 365.416 185.074 366.472C188.506 367.528 191.586 369.288 194.314 371.752C197.042 374.216 199.198 377.472 200.782 381.52C202.454 385.568 203.246 390.496 203.158 396.304L158.806 397.096C158.806 402.552 159.422 407.392 160.654 411.616C161.974 415.752 164.086 419.052 166.99 421.516C169.894 423.892 173.722 425.08 178.474 425.08C180.586 425.08 182.83 424.728 185.206 424.024C187.67 423.232 190.09 422.088 192.466 420.592C194.842 419.008 196.954 417.072 198.802 414.784L203.818 419.404C200.914 423.628 197.702 426.884 194.182 429.172C190.662 431.46 187.142 433 183.622 433.792C180.102 434.672 176.846 435.112 173.854 435.112ZM159.466 389.176H186.922C186.834 385.656 186.306 382.708 185.338 380.332C184.458 377.868 183.138 376.02 181.378 374.788C179.618 373.468 177.462 372.808 174.91 372.808C170.598 372.808 167.122 374.26 164.482 377.164C161.93 379.98 160.258 383.984 159.466 389.176ZM286.022 433C285.758 431.68 285.582 430.58 285.494 429.7C285.494 428.732 285.45 427.632 285.362 426.4C282.37 429.392 279.158 431.592 275.726 433C272.382 434.408 268.906 435.112 265.298 435.112C259.314 435.112 254.694 433.484 251.438 430.228C248.27 426.972 246.686 422.968 246.686 418.216C246.686 413.992 247.83 410.428 250.118 407.524C252.406 404.532 255.398 402.112 259.094 400.264C262.79 398.328 266.882 396.876 271.37 395.908C275.858 394.852 280.302 394.28 284.702 394.192V386.932C284.702 384.38 284.394 382.048 283.778 379.936C283.25 377.736 282.238 376.02 280.742 374.788C279.246 373.468 277.046 372.808 274.142 372.808C272.206 372.896 270.226 373.336 268.202 374.128C266.266 374.832 264.726 375.976 263.582 377.56C264.286 378.352 264.726 379.232 264.902 380.2C265.078 381.08 265.166 381.872 265.166 382.576C265.166 384.16 264.55 385.832 263.318 387.592C262.086 389.264 260.106 390.056 257.378 389.968C255.002 389.88 253.154 389.044 251.834 387.46C250.602 385.876 249.986 383.984 249.986 381.784C249.986 378.44 251.174 375.536 253.55 373.072C256.014 370.52 259.314 368.54 263.45 367.132C267.586 365.636 272.206 364.888 277.31 364.888C284.878 364.888 290.686 366.868 294.734 370.828C298.782 374.788 300.762 381.124 300.674 389.836C300.674 392.916 300.674 395.732 300.674 398.284C300.674 400.748 300.63 403.256 300.542 405.808C300.542 408.272 300.542 411.044 300.542 414.124C300.542 415.444 300.498 417.116 300.41 419.14C300.322 421.076 300.19 423.012 300.014 424.948C301.598 424.772 303.182 424.684 304.766 424.684C306.438 424.596 307.802 424.508 308.858 424.42V433H286.022ZM284.57 401.98C281.93 402.156 279.334 402.596 276.782 403.3C274.23 403.916 271.942 404.796 269.918 405.94C267.894 407.084 266.266 408.536 265.034 410.296C263.89 411.968 263.362 413.904 263.45 416.104C263.538 418.832 264.418 420.856 266.09 422.176C267.762 423.408 269.698 424.024 271.898 424.024C274.45 424.024 276.738 423.496 278.762 422.44C280.874 421.384 282.81 419.976 284.57 418.216C284.57 417.336 284.57 416.412 284.57 415.444C284.57 414.476 284.57 413.508 284.57 412.54C284.57 411.308 284.57 409.768 284.57 407.92C284.57 406.072 284.57 404.092 284.57 401.98ZM342.069 435.112C339.605 435.112 337.185 434.804 334.809 434.188C332.521 433.572 330.409 432.428 328.473 430.756C326.625 429.084 325.129 426.62 323.985 423.364C322.841 420.02 322.269 415.62 322.269 410.164L322.533 376.108L313.161 376.24V367C315.801 366.912 318.353 366.032 320.817 364.36C323.281 362.6 325.437 360.312 327.285 357.496C329.133 354.68 330.365 351.688 330.981 348.52H339.033L338.901 367H357.513V375.448L338.901 375.844L338.769 409.768C338.769 412.408 338.989 414.872 339.429 417.16C339.957 419.36 340.837 421.12 342.069 422.44C343.389 423.76 345.149 424.42 347.349 424.42C349.021 424.42 350.913 423.892 353.025 422.836C355.225 421.78 357.425 419.668 359.625 416.5L365.037 421.384C362.837 424.728 360.549 427.324 358.173 429.172C355.885 431.02 353.641 432.384 351.441 433.264C349.329 434.144 347.437 434.672 345.765 434.848C344.093 435.024 342.861 435.112 342.069 435.112ZM401.244 435.112C394.908 435.112 389.276 433.704 384.348 430.888C379.42 427.984 375.592 423.936 372.864 418.744C370.136 413.464 368.772 407.26 368.772 400.132C368.772 393.972 370.136 388.208 372.864 382.84C375.592 377.472 379.42 373.16 384.348 369.904C389.364 366.56 395.172 364.888 401.772 364.888C405.468 364.888 409.032 365.416 412.464 366.472C415.896 367.528 418.976 369.288 421.704 371.752C424.432 374.216 426.588 377.472 428.172 381.52C429.844 385.568 430.636 390.496 430.548 396.304L386.196 397.096C386.196 402.552 386.812 407.392 388.044 411.616C389.364 415.752 391.476 419.052 394.38 421.516C397.284 423.892 401.112 425.08 405.864 425.08C407.976 425.08 410.22 424.728 412.596 424.024C415.06 423.232 417.48 422.088 419.856 420.592C422.232 419.008 424.344 417.072 426.192 414.784L431.208 419.404C428.304 423.628 425.092 426.884 421.572 429.172C418.052 431.46 414.532 433 411.012 433.792C407.492 434.672 404.236 435.112 401.244 435.112ZM386.856 389.176H414.312C414.224 385.656 413.696 382.708 412.728 380.332C411.848 377.868 410.528 376.02 408.768 374.788C407.008 373.468 404.852 372.808 402.3 372.808C397.988 372.808 394.512 374.26 391.872 377.164C389.32 379.98 387.648 383.984 386.856 389.176ZM394.644 357.76L389.364 353.14L400.32 334.924C401.376 333.252 402.564 332.108 403.884 331.492C405.204 330.788 406.524 330.48 407.844 330.568C409.252 330.656 410.44 331.096 411.408 331.888C412.464 332.856 413.124 334.044 413.388 335.452C413.652 336.772 413.52 338.18 412.992 339.676C412.552 341.084 411.628 342.448 410.22 343.768L394.644 357.76ZM475.396 433C475.396 428.424 476.012 424.332 477.244 420.724C478.564 417.116 480.28 413.86 482.392 410.956C484.592 407.964 487.012 405.192 489.652 402.64C492.292 400 495.02 397.36 497.836 394.72C503.996 388.912 508.396 383.632 511.036 378.88C513.676 374.04 514.996 369.332 514.996 364.756C514.996 361.764 514.6 358.86 513.808 356.044C513.104 353.228 511.74 350.94 509.716 349.18C507.692 347.332 504.832 346.408 501.136 346.408C498.408 346.408 495.944 347.112 493.744 348.52C491.544 349.84 489.96 351.424 488.992 353.272C489.872 354.24 490.488 355.34 490.84 356.572C491.28 357.716 491.5 358.772 491.5 359.74C491.5 360.708 491.236 361.808 490.708 363.04C490.18 364.272 489.3 365.328 488.068 366.208C486.924 367.088 485.34 367.528 483.316 367.528C480.852 367.352 478.96 366.428 477.64 364.756C476.32 362.996 475.66 360.972 475.66 358.684C475.66 356.66 476.276 354.504 477.508 352.216C478.74 349.928 480.544 347.728 482.92 345.616C485.384 343.504 488.376 341.788 491.896 340.468C495.416 339.148 499.464 338.488 504.04 338.488C507.56 338.488 511.036 338.928 514.468 339.808C517.9 340.688 521.024 342.096 523.84 344.032C526.656 345.88 528.9 348.388 530.572 351.556C532.244 354.636 533.08 358.464 533.08 363.04C533.08 365.24 532.64 367.572 531.76 370.036C530.968 372.5 529.516 375.184 527.404 378.088C525.292 380.992 522.432 384.248 518.824 387.856C515.216 391.376 510.64 395.424 505.096 400C499.816 404.312 495.768 408.272 492.952 411.88C490.224 415.488 488.596 418.392 488.068 420.592L513.148 421.252C515.876 421.34 518.252 421.252 520.276 420.988C522.388 420.636 524.016 419.844 525.16 418.612C526.392 417.292 527.008 415.268 527.008 412.54H534.004L533.08 433H475.396ZM582.208 435.112C575.52 435.112 569.888 433.704 565.312 430.888C560.736 427.984 557.084 424.2 554.356 419.536C551.628 414.784 549.648 409.592 548.416 403.96C547.272 398.328 546.7 392.74 546.7 387.196C546.7 381.652 547.404 376.02 548.812 370.3C550.308 364.58 552.552 359.344 555.544 354.592C558.536 349.752 562.276 345.88 566.764 342.976C571.252 339.984 576.576 338.488 582.736 338.488C589.16 338.488 594.572 339.94 598.972 342.844C603.46 345.748 607.024 349.576 609.664 354.328C612.392 358.992 614.372 364.14 615.604 369.772C616.836 375.404 617.452 380.992 617.452 386.536C617.452 391.992 616.748 397.58 615.34 403.3C614.02 409.02 611.908 414.3 609.004 419.14C606.188 423.892 602.536 427.764 598.048 430.756C593.648 433.66 588.368 435.112 582.208 435.112ZM583 427.192C586.256 427.192 588.984 426.136 591.184 424.024C593.384 421.912 595.056 419.096 596.2 415.576C597.432 411.968 598.312 407.92 598.84 403.432C599.368 398.856 599.632 394.148 599.632 389.308C599.632 383.94 599.368 378.704 598.84 373.6C598.4 368.496 597.564 363.92 596.332 359.872C595.1 355.736 593.34 352.436 591.052 349.972C588.852 347.508 585.992 346.276 582.472 346.276C579.04 346.276 576.18 347.332 573.892 349.444C571.692 351.556 569.888 354.416 568.48 358.024C567.072 361.632 566.06 365.724 565.444 370.3C564.916 374.788 564.652 379.496 564.652 384.424C564.652 388.12 564.784 391.948 565.048 395.908C565.312 399.868 565.796 403.696 566.5 407.392C567.292 411.088 568.348 414.432 569.668 417.424C571.076 420.416 572.836 422.792 574.948 424.552C577.148 426.312 579.832 427.192 583 427.192ZM648.058 435.244L640.402 428.38L715.378 338.488L723.826 346.012L648.058 435.244ZM653.602 389.704C648.234 389.704 643.702 388.516 640.006 386.14C636.398 383.676 633.626 380.552 631.69 376.768C629.842 372.896 628.918 368.804 628.918 364.492C628.918 360.356 629.886 356.352 631.822 352.48C633.758 348.52 636.53 345.22 640.138 342.58C643.834 339.94 648.234 338.576 653.338 338.488C658.794 338.4 663.37 339.588 667.066 342.052C670.762 344.516 673.534 347.684 675.382 351.556C677.23 355.34 678.154 359.256 678.154 363.304C678.154 367.88 677.054 372.192 674.854 376.24C672.654 380.288 669.706 383.544 666.01 386.008C662.314 388.472 658.178 389.704 653.602 389.704ZM653.866 380.992C656.33 380.992 658.266 380.2 659.674 378.616C661.082 376.944 662.094 374.92 662.71 372.544C663.326 370.08 663.634 367.704 663.634 365.416C663.634 363.48 663.458 361.456 663.106 359.344C662.842 357.232 662.314 355.252 661.522 353.404C660.73 351.556 659.674 350.016 658.354 348.784C657.034 347.552 655.406 346.936 653.47 346.936C651.006 346.936 649.026 347.86 647.53 349.708C646.034 351.468 644.978 353.58 644.362 356.044C643.834 358.508 643.57 360.796 643.57 362.908C643.57 364.668 643.702 366.604 643.966 368.716C644.318 370.74 644.846 372.72 645.55 374.656C646.254 376.504 647.266 378.044 648.586 379.276C649.994 380.42 651.754 380.992 653.866 380.992ZM712.078 435.112C706.71 435.112 702.178 433.924 698.482 431.548C694.786 429.172 692.014 426.048 690.166 422.176C688.318 418.304 687.394 414.256 687.394 410.032C687.394 405.808 688.406 401.716 690.43 397.756C692.454 393.796 695.314 390.54 699.01 387.988C702.706 385.348 707.018 383.984 711.946 383.896C717.314 383.896 721.802 385.128 725.41 387.592C729.018 389.968 731.746 393.092 733.594 396.964C735.53 400.836 736.498 404.796 736.498 408.844C736.498 413.244 735.442 417.468 733.33 421.516C731.306 425.476 728.446 428.732 724.75 431.284C721.142 433.836 716.918 435.112 712.078 435.112ZM712.342 426.532C714.806 426.532 716.742 425.696 718.15 424.024C719.558 422.264 720.526 420.196 721.054 417.82C721.67 415.356 721.978 412.98 721.978 410.692C721.978 408.844 721.802 406.908 721.45 404.884C721.186 402.772 720.658 400.792 719.866 398.944C719.162 397.008 718.15 395.468 716.83 394.324C715.51 393.092 713.838 392.476 711.814 392.476C709.35 392.476 707.37 393.356 705.874 395.116C704.466 396.876 703.454 398.988 702.838 401.452C702.222 403.828 701.914 406.028 701.914 408.052C701.914 409.9 702.046 411.88 702.31 413.992C702.662 416.104 703.234 418.128 704.026 420.064C704.818 421.912 705.874 423.452 707.194 424.684C708.514 425.916 710.23 426.532 712.342 426.532Z" fill="#303030"/>
<rect x="48" y="555" width="996" height="108" rx="16" fill="white"/>
<path d="M760.125 619.125C756.75 621.96 755.625 630.375 755.625 630.375C755.625 630.375 764.04 629.25 766.875 625.875C768.472 623.985 768.45 621.082 766.672 619.327C765.798 618.493 764.646 618.01 763.438 617.973C762.229 617.936 761.049 618.346 760.125 619.125Z" stroke="#5046E5" stroke-width="4" stroke-linecap="round" stroke-linejoin="round"/>
<path d="M777 615.75L770.25 609C771.447 605.894 772.955 602.916 774.75 600.113C777.372 595.921 781.022 592.469 785.354 590.087C789.686 587.704 794.556 586.469 799.5 586.5C799.5 592.62 797.745 603.375 786 611.25C783.158 613.047 780.143 614.555 777 615.75Z" stroke="#5046E5" stroke-width="4" stroke-linecap="round" stroke-linejoin="round"/>
<path d="M770.25 609H759C759 609 760.237 602.182 763.5 600C767.145 597.57 774.75 600 774.75 600" stroke="#5046E5" stroke-width="4" stroke-linecap="round" stroke-linejoin="round"/>
<path d="M777 615.75V627C777 627 783.817 625.763 786 622.5C788.43 618.855 786 611.25 786 611.25" stroke="#5046E5" stroke-width="4" stroke-linecap="round" stroke-linejoin="round"/>
<path d="M289.806 609.946C289.806 606.818 290.527 604.012 291.968 601.528C293.44 599.044 295.418 597.112 297.902 595.732C300.417 594.321 303.162 593.616 306.136 593.616C309.54 593.616 312.561 594.459 315.198 596.146C317.866 597.802 319.798 600.163 320.994 603.23H314.692C313.864 601.543 312.714 600.286 311.242 599.458C309.77 598.63 308.068 598.216 306.136 598.216C304.02 598.216 302.134 598.691 300.478 599.642C298.822 600.593 297.519 601.957 296.568 603.736C295.648 605.515 295.188 607.585 295.188 609.946C295.188 612.307 295.648 614.377 296.568 616.156C297.519 617.935 298.822 619.315 300.478 620.296C302.134 621.247 304.02 621.722 306.136 621.722C308.068 621.722 309.77 621.308 311.242 620.48C312.714 619.652 313.864 618.395 314.692 616.708H320.994C319.798 619.775 317.866 622.136 315.198 623.792C312.561 625.448 309.54 626.276 306.136 626.276C303.131 626.276 300.386 625.586 297.902 624.206C295.418 622.795 293.44 620.848 291.968 618.364C290.527 615.88 289.806 613.074 289.806 609.946ZM332.377 604.334C333.143 603.046 334.155 602.049 335.413 601.344C336.701 600.608 338.219 600.24 339.967 600.24V605.668H338.633C336.578 605.668 335.014 606.189 333.941 607.232C332.898 608.275 332.377 610.084 332.377 612.66V626H327.133V600.654H332.377V604.334ZM347.455 597.296C346.504 597.296 345.707 596.974 345.063 596.33C344.419 595.686 344.097 594.889 344.097 593.938C344.097 592.987 344.419 592.19 345.063 591.546C345.707 590.902 346.504 590.58 347.455 590.58C348.375 590.58 349.157 590.902 349.801 591.546C350.445 592.19 350.767 592.987 350.767 593.938C350.767 594.889 350.445 595.686 349.801 596.33C349.157 596.974 348.375 597.296 347.455 597.296ZM350.031 600.654V626H344.787V600.654H350.031ZM380.146 612.706C380.146 613.657 380.084 614.515 379.962 615.282H360.596C360.749 617.306 361.5 618.931 362.85 620.158C364.199 621.385 365.855 621.998 367.818 621.998C370.639 621.998 372.632 620.817 373.798 618.456H379.456C378.689 620.787 377.294 622.703 375.27 624.206C373.276 625.678 370.792 626.414 367.818 626.414C365.395 626.414 363.218 625.877 361.286 624.804C359.384 623.7 357.882 622.167 356.778 620.204C355.704 618.211 355.168 615.911 355.168 613.304C355.168 610.697 355.689 608.413 356.732 606.45C357.805 604.457 359.292 602.923 361.194 601.85C363.126 600.777 365.334 600.24 367.818 600.24C370.21 600.24 372.341 600.761 374.212 601.804C376.082 602.847 377.539 604.319 378.582 606.22C379.624 608.091 380.146 610.253 380.146 612.706ZM374.672 611.05C374.641 609.118 373.951 607.569 372.602 606.404C371.252 605.239 369.581 604.656 367.588 604.656C365.778 604.656 364.23 605.239 362.942 606.404C361.654 607.539 360.887 609.087 360.642 611.05H374.672ZM406.456 626.414C404.462 626.414 402.668 626.061 401.074 625.356C399.51 624.62 398.268 623.639 397.348 622.412C396.428 621.155 395.937 619.759 395.876 618.226H401.304C401.396 619.299 401.902 620.204 402.822 620.94C403.772 621.645 404.953 621.998 406.364 621.998C407.836 621.998 408.97 621.722 409.768 621.17C410.596 620.587 411.01 619.851 411.01 618.962C411.01 618.011 410.55 617.306 409.63 616.846C408.74 616.386 407.314 615.88 405.352 615.328C403.45 614.807 401.902 614.301 400.706 613.81C399.51 613.319 398.467 612.568 397.578 611.556C396.719 610.544 396.29 609.21 396.29 607.554C396.29 606.205 396.688 604.978 397.486 603.874C398.283 602.739 399.418 601.85 400.89 601.206C402.392 600.562 404.11 600.24 406.042 600.24C408.924 600.24 411.24 600.976 412.988 602.448C414.766 603.889 415.717 605.867 415.84 608.382H410.596C410.504 607.247 410.044 606.343 409.216 605.668C408.388 604.993 407.268 604.656 405.858 604.656C404.478 604.656 403.42 604.917 402.684 605.438C401.948 605.959 401.58 606.649 401.58 607.508C401.58 608.183 401.825 608.75 402.316 609.21C402.806 609.67 403.404 610.038 404.11 610.314C404.815 610.559 405.858 610.881 407.238 611.28C409.078 611.771 410.58 612.277 411.746 612.798C412.942 613.289 413.969 614.025 414.828 615.006C415.686 615.987 416.131 617.291 416.162 618.916C416.162 620.357 415.763 621.645 414.966 622.78C414.168 623.915 413.034 624.804 411.562 625.448C410.12 626.092 408.418 626.414 406.456 626.414ZM444.782 600.654V626H439.538V623.01C438.71 624.053 437.621 624.881 436.272 625.494C434.953 626.077 433.543 626.368 432.04 626.368C430.047 626.368 428.253 625.954 426.658 625.126C425.094 624.298 423.852 623.071 422.932 621.446C422.043 619.821 421.598 617.858 421.598 615.558V600.654H426.796V614.776C426.796 617.045 427.363 618.793 428.498 620.02C429.633 621.216 431.181 621.814 433.144 621.814C435.107 621.814 436.655 621.216 437.79 620.02C438.955 618.793 439.538 617.045 439.538 614.776V600.654H444.782ZM449.953 613.212C449.953 610.667 450.474 608.413 451.517 606.45C452.59 604.487 454.032 602.969 455.841 601.896C457.681 600.792 459.705 600.24 461.913 600.24C463.906 600.24 465.639 600.639 467.111 601.436C468.614 602.203 469.81 603.169 470.699 604.334V600.654H475.989V626H470.699V622.228C469.81 623.424 468.598 624.421 467.065 625.218C465.532 626.015 463.784 626.414 461.821 626.414C459.644 626.414 457.65 625.862 455.841 624.758C454.032 623.623 452.59 622.059 451.517 620.066C450.474 618.042 449.953 615.757 449.953 613.212ZM470.699 613.304C470.699 611.556 470.331 610.038 469.595 608.75C468.89 607.462 467.954 606.481 466.789 605.806C465.624 605.131 464.366 604.794 463.017 604.794C461.668 604.794 460.41 605.131 459.245 605.806C458.08 606.45 457.129 607.416 456.393 608.704C455.688 609.961 455.335 611.464 455.335 613.212C455.335 614.96 455.688 616.493 456.393 617.812C457.129 619.131 458.08 620.143 459.245 620.848C460.441 621.523 461.698 621.86 463.017 621.86C464.366 621.86 465.624 621.523 466.789 620.848C467.954 620.173 468.89 619.192 469.595 617.904C470.331 616.585 470.699 615.052 470.699 613.304ZM493.078 609.946C493.078 606.818 493.799 604.012 495.24 601.528C496.712 599.044 498.69 597.112 501.174 595.732C503.689 594.321 506.433 593.616 509.408 593.616C512.812 593.616 515.833 594.459 518.47 596.146C521.138 597.802 523.07 600.163 524.266 603.23H517.964C517.136 601.543 515.986 600.286 514.514 599.458C513.042 598.63 511.34 598.216 509.408 598.216C507.292 598.216 505.406 598.691 503.75 599.642C502.094 600.593 500.791 601.957 499.84 603.736C498.92 605.515 498.46 607.585 498.46 609.946C498.46 612.307 498.92 614.377 499.84 616.156C500.791 617.935 502.094 619.315 503.75 620.296C505.406 621.247 507.292 621.722 509.408 621.722C511.34 621.722 513.042 621.308 514.514 620.48C515.986 619.652 517.136 618.395 517.964 616.708H524.266C523.07 619.775 521.138 622.136 518.47 623.792C515.833 625.448 512.812 626.276 509.408 626.276C506.403 626.276 503.658 625.586 501.174 624.206C498.69 622.795 496.712 620.848 495.24 618.364C493.799 615.88 493.078 613.074 493.078 609.946ZM541.398 626.414C539.006 626.414 536.844 625.877 534.912 624.804C532.98 623.7 531.462 622.167 530.358 620.204C529.254 618.211 528.702 615.911 528.702 613.304C528.702 610.728 529.269 608.443 530.404 606.45C531.539 604.457 533.087 602.923 535.05 601.85C537.013 600.777 539.205 600.24 541.628 600.24C544.051 600.24 546.243 600.777 548.206 601.85C550.169 602.923 551.717 604.457 552.852 606.45C553.987 608.443 554.554 610.728 554.554 613.304C554.554 615.88 553.971 618.165 552.806 620.158C551.641 622.151 550.046 623.7 548.022 624.804C546.029 625.877 543.821 626.414 541.398 626.414ZM541.398 621.86C542.747 621.86 544.005 621.538 545.17 620.894C546.366 620.25 547.332 619.284 548.068 617.996C548.804 616.708 549.172 615.144 549.172 613.304C549.172 611.464 548.819 609.915 548.114 608.658C547.409 607.37 546.473 606.404 545.308 605.76C544.143 605.116 542.885 604.794 541.536 604.794C540.187 604.794 538.929 605.116 537.764 605.76C536.629 606.404 535.725 607.37 535.05 608.658C534.375 609.915 534.038 611.464 534.038 613.304C534.038 616.033 534.728 618.149 536.108 619.652C537.519 621.124 539.282 621.86 541.398 621.86ZM572.526 600.24C574.519 600.24 576.298 600.654 577.862 601.482C579.457 602.31 580.699 603.537 581.588 605.162C582.477 606.787 582.922 608.75 582.922 611.05V626H577.724V611.832C577.724 609.563 577.157 607.83 576.022 606.634C574.887 605.407 573.339 604.794 571.376 604.794C569.413 604.794 567.849 605.407 566.684 606.634C565.549 607.83 564.982 609.563 564.982 611.832V626H559.738V600.654H564.982V603.552C565.841 602.509 566.929 601.697 568.248 601.114C569.597 600.531 571.023 600.24 572.526 600.24ZM595.729 604.932V618.962C595.729 619.913 595.944 620.603 596.373 621.032C596.833 621.431 597.6 621.63 598.673 621.63H601.893V626H597.753C595.392 626 593.582 625.448 592.325 624.344C591.068 623.24 590.439 621.446 590.439 618.962V604.932H587.449V600.654H590.439V594.352H595.729V600.654H601.893V604.932H595.729ZM604.978 613.212C604.978 610.667 605.5 608.413 606.542 606.45C607.616 604.487 609.057 602.969 610.866 601.896C612.706 600.792 614.73 600.24 616.938 600.24C618.932 600.24 620.664 600.639 622.136 601.436C623.639 602.203 624.835 603.169 625.724 604.334V600.654H631.014V626H625.724V622.228C624.835 623.424 623.624 624.421 622.09 625.218C620.557 626.015 618.809 626.414 616.846 626.414C614.669 626.414 612.676 625.862 610.866 624.758C609.057 623.623 607.616 622.059 606.542 620.066C605.5 618.042 604.978 615.757 604.978 613.212ZM625.724 613.304C625.724 611.556 625.356 610.038 624.62 608.75C623.915 607.462 622.98 606.481 621.814 605.806C620.649 605.131 619.392 604.794 618.042 604.794C616.693 604.794 615.436 605.131 614.27 605.806C613.105 606.45 612.154 607.416 611.418 608.704C610.713 609.961 610.36 611.464 610.36 613.212C610.36 614.96 610.713 616.493 611.418 617.812C612.154 619.131 613.105 620.143 614.27 620.848C615.466 621.523 616.724 621.86 618.042 621.86C619.392 621.86 620.649 621.523 621.814 620.848C622.98 620.173 623.915 619.192 624.62 617.904C625.356 616.585 625.724 615.052 625.724 613.304ZM672.207 603.552C672.207 605.177 671.824 606.711 671.057 608.152C670.291 609.593 669.064 610.774 667.377 611.694C665.691 612.583 663.529 613.028 660.891 613.028H655.095V626H649.851V594.03H660.891C663.345 594.03 665.415 594.459 667.101 595.318C668.819 596.146 670.091 597.281 670.919 598.722C671.778 600.163 672.207 601.773 672.207 603.552ZM660.891 608.75C662.885 608.75 664.372 608.305 665.353 607.416C666.335 606.496 666.825 605.208 666.825 603.552C666.825 600.056 664.847 598.308 660.891 598.308H655.095V608.75H660.891ZM693.815 626L686.455 613.212H682.453V626H677.209V594.03H688.249C690.702 594.03 692.772 594.459 694.459 595.318C696.176 596.177 697.449 597.327 698.277 598.768C699.135 600.209 699.565 601.819 699.565 603.598C699.565 605.683 698.951 607.585 697.725 609.302C696.529 610.989 694.673 612.139 692.159 612.752L700.071 626H693.815ZM682.453 609.026H688.249C690.211 609.026 691.683 608.535 692.665 607.554C693.677 606.573 694.183 605.254 694.183 603.598C694.183 601.942 693.692 600.654 692.711 599.734C691.729 598.783 690.242 598.308 688.249 598.308H682.453V609.026ZM720.855 626.322C717.881 626.322 715.136 625.632 712.621 624.252C710.137 622.841 708.159 620.894 706.687 618.41C705.246 615.895 704.525 613.074 704.525 609.946C704.525 606.818 705.246 604.012 706.687 601.528C708.159 599.044 710.137 597.112 712.621 595.732C715.136 594.321 717.881 593.616 720.855 593.616C723.861 593.616 726.605 594.321 729.089 595.732C731.604 597.112 733.582 599.044 735.023 601.528C736.465 604.012 737.185 606.818 737.185 609.946C737.185 613.074 736.465 615.895 735.023 618.41C733.582 620.894 731.604 622.841 729.089 624.252C726.605 625.632 723.861 626.322 720.855 626.322ZM720.855 621.768C722.971 621.768 724.857 621.293 726.513 620.342C728.169 619.361 729.457 617.981 730.377 616.202C731.328 614.393 731.803 612.307 731.803 609.946C731.803 607.585 731.328 605.515 730.377 603.736C729.457 601.957 728.169 600.593 726.513 599.642C724.857 598.691 722.971 598.216 720.855 598.216C718.739 598.216 716.853 598.691 715.197 599.642C713.541 600.593 712.238 601.957 711.287 603.736C710.367 605.515 709.907 607.585 709.907 609.946C709.907 612.307 710.367 614.393 711.287 616.202C712.238 617.981 713.541 619.361 715.197 620.342C716.853 621.293 718.739 621.768 720.855 621.768Z" fill="#5046E5"/>
</svg>
