<svg width="52" height="60" viewBox="0 0 52 60" fill="none" xmlns="http://www.w3.org/2000/svg">
<path d="M40.899 22.7272L22.072 9.27932C20.7458 8.33209 18.9061 8.61678 17.9282 9.92052L12.4531 17.2206C11.4182 18.6006 11.6661 20.553 13.013 21.6305C14.4436 22.775 16.5418 22.4838 17.6067 20.993L20.697 16.6666L26.2525 20.707L3.00483 52.7888C1.89919 54.3146 2.24527 56.4486 3.77646 57.5467C5.28691 58.63 7.38732 58.2995 8.49214 56.8048L23.5 36.5L29.7879 40.404L24.6362 47.7635C23.5708 49.2855 23.921 51.3805 25.4235 52.4732C26.9815 53.6063 29.1682 53.2235 30.2486 51.6286L37.2375 41.3116C38.1505 39.9639 37.8221 38.134 36.4975 37.1879L28.2727 31.3131L32.8182 24.7474L40.0774 29.7143C41.3893 30.6118 43.1735 30.3304 44.1453 29.0727L49.0581 22.715C50.1358 21.3203 49.8964 19.3191 48.5201 18.218C47.1084 17.0886 45.0446 17.3379 43.9424 18.7708L40.899 22.7272Z" stroke="#9f1239" stroke-width="3"/>
<circle cx="38.8785" cy="7.57576" r="6.07576" stroke="#9f1239" stroke-width="3"/>
</svg>
